<svg version="1.2" baseProfile="tiny" id="Layer_1" xmlns="http://www.w3.org/2000/svg" xmlns:xlink="http://www.w3.org/1999/xlink" x="0px" y="0px" viewBox="0 0 861 298.5" xml:space="preserve">
<rect x="1159.5" y="512.3" fill="#CE96B1" width="3.6" height="0"></rect>
<path fill="#86837E" d="M214.5,166.7h-16.9V80.3c0,0,6.1-0.7,16.1-0.7c28.5,0,36.8,24.2,36.8,42
	C250.6,139.4,242.3,166.7,214.5,166.7L214.5,166.7z M197.6,52.2h4.2c9.2,0,11.3,8.7,11.3,12.8c0,4.1-1.2,13.2-11.5,13.2
	c-1.3,0-4,0.3-4,0.3V52.2L197.6,52.2z M217.2,77.9l-3.9,0.1c5.4-2,10.6-6.2,10.6-13c0-9.2-8.9-14.3-17.6-14.3h-32.9v1.5h11.1v114.5
	h-11.1v1.8h43.9c27.2,0,47.5-23.3,47.5-47C264.7,97.8,244.5,77.9,217.2,77.9L217.2,77.9z M579.5,125.6c-14.7-7.7-36.5-9.5-36.5-27
	c0-9.8,5.7-16.9,19.2-16.9c13.4,0,23.4,6.2,27.1,25.8h1.4V79.8h-1.5c0,4.1-1.9,5.2-4.5,5.2c-2.6,0-12.8-5.2-22.5-5.2
	c-9.7,0-29.9,6.2-29.9,24.1c0,10.2,4.8,16.1,14.1,21.1c14.5,7.8,35.9,8.8,35.9,26.7c0,9-7.7,17.1-21,17.1c-5,0-10.1-0.7-14.4-2.6
	c-7.4-3.3-12.8-8.8-11.7-11c1.4,1,3.2,1.5,5.1,1.5c5.1,0,9.2-4.1,9.2-9.2c0-5.1-4.1-9.2-9.2-9.2c-5.1,0-9.2,4.1-9.2,9.2
	c0,18.7,21.9,23,29.9,23c12.3,0,32-6.8,32-25.6C592.9,135.9,588,130.1,579.5,125.6L579.5,125.6z M847.7,156.5c0,4.8-3.6,7.9-7,7.9
	c-3.4,0-7.2-0.8-7.2-11.9c0-11.1,0-40.7,0-40.7c0-14.8-3.5-31.3-27.7-31.3c-5.8,0-16.8,3.7-23.1,15.8V82.1h-24.3v1.8h11v82.9h-11
	v1.8h34.9v-1.8h-10.7v-57.4c0-13.4,6.8-25.6,22.9-25.6c13.9,0,14.9,15,14.9,24.7c0,0,0,30.3,0,41.4c0,11.2,3.8,20.5,13.6,20.5
	c4.7,0,14.9-4.1,14.9-13.9H847.7L847.7,156.5z M504.3,164.4c-3.4,0-7.2-0.8-7.2-11.9c0-11.1,0-40.7,0-40.7
	c0-14.8-3.5-31.3-27.7-31.3c-5.8,0-16.8,3.7-23.1,15.8V82.1H422v1.8h11v82.9h-15.2v1.8H457v-1.8h-10.7v-57.4
	c0-13.4,6.8-25.6,22.9-25.6c13.9,0,14.8,15,14.8,24.7c0,0,0,30.3,0,41.4c0,11.2,3.8,20.5,13.7,20.5c4.7,0,14.9-4.1,14.9-13.9h-1.2
	C511.3,161.4,507.7,164.4,504.3,164.4L504.3,164.4z M399.5,80.6c-6.8,0-19.4,3.9-25.5,22.6V82.1h-24.3v1.8h11v82.9h-11v1.8h40.1
	v-1.8H374v-49.1c0-18.8,11-35.5,25.3-35.5c11.7,0,14.4,7,13.9,9.1c-1.3-0.7-2.9-1.1-4.5-1.1c-5.3,0-9.6,4.3-9.6,9.6
	c0,5.3,4.3,9.6,9.6,9.6c5.3,0,9.6-4.3,9.6-9.6C418.3,84.8,407.9,80.6,399.5,80.6L399.5,80.6z M746.6,125.3
	c-0.3,24-8.6,43.5-26.4,43.5c-16,0-25.7-19.5-25.4-43.5c0.3-24,9.4-43.5,26.4-43.5C738.2,81.9,746.9,101.3,746.6,125.3L746.6,125.3z
	 M722,80.2c-21.9,0-40.1,20.2-40.7,45.1c-0.6,24.9,16.7,45.1,38.6,45.1c21.9,0,40.1-20.2,40.7-45.1C761.2,100.4,743.9,80.2,722,80.2
	L722,80.2z M663.6,125.3c-0.3,24-8.6,43.5-26.4,43.5c-16.1,0-25.7-19.5-25.5-43.5c0.3-24,9.4-43.5,26.4-43.5
	C655.2,81.9,663.9,101.3,663.6,125.3L663.6,125.3z M639,80.2c-21.9,0-40.1,20.2-40.7,45.1c-0.6,24.9,16.7,45.1,38.6,45.1
	c21.9,0,40.1-20.2,40.7-45.1C678.2,100.4,660.9,80.2,639,80.2L639,80.2z M336.6,125.3c-0.3,24-8.6,43.5-26.4,43.5
	c-16,0-25.7-19.5-25.4-43.5c0.3-24,9.4-43.5,26.4-43.5C328.2,81.9,336.9,101.3,336.6,125.3L336.6,125.3z M312,80.2
	c-21.9,0-40.1,20.2-40.7,45.1c-0.6,24.9,16.7,45.1,38.6,45.1c21.9,0,40.1-20.2,40.7-45.1C351.2,100.4,333.9,80.2,312,80.2L312,80.2z
	"></path>
<path fill="#A1A19E" d="M845.9,71.3h-4.6v0.3h4.6c3.3,0,7-1.5,7-4.7c0-3-2.9-4.3-7-4.3H839v0.3h6.9c3.9,0,4,2.7,4,4.3
	C849.9,68.8,849.2,71.3,845.9,71.3L845.9,71.3z"></path>
<polygon fill="#A1A19E" points="840.6,79.9 843.5,79.9 843.5,62.7 840.6,62.7 840.6,79.9 "></polygon>
<path fill="#A1A19E" d="M845.6,71.6c6.5,0,1.6,8.5,6,8.5c1.8,0,2.4-1.2,2.4-3h-0.4c0,1-0.1,1.7-0.7,1.7c-1.1,0-0.6-2.1-1-4.1
	c-0.4-1.8-1.6-3.5-5-3.5L845.6,71.6L845.6,71.6z"></path>
<polygon fill="#A1A19E" points="839,79.9 845.5,79.9 845.5,79.6 839,79.6 839,79.9 "></polygon>
<path fill="#A1A19E" d="M836.4,61.9c-2.4,2.4-4,5.8-4,9.5l0,0c0,3.7,1.5,7.1,4,9.5l0,0c2.4,2.4,5.8,4,9.5,4l0,0c3.7,0,7.1-1.5,9.6-4
	l0,0c2.5-2.5,4-5.8,4-9.5l0,0c0-3.7-1.5-7.1-4-9.5l0,0c-2.4-2.4-5.8-3.9-9.6-3.9l0,0C842.2,58,838.8,59.5,836.4,61.9L836.4,61.9
	L836.4,61.9z M831.3,71.5c0-8.1,6.5-14.6,14.6-14.6l0,0c8.1,0,14.6,6.5,14.6,14.6l0,0c0,8.1-6.5,14.6-14.6,14.6l0,0
	C837.8,86.1,831.3,79.5,831.3,71.5L831.3,71.5L831.3,71.5z"></path>
<path fill="#B56A94" d="M84,290.7c-2.4-4.8-5.2-14.7-7-22.8c-1.8-8-2.5-14.6-2.7-17.9c2.1,0.2,4.2,0.2,6.4,0.2
	c0.5,4.8,2.1,19,2.9,29.7c0.5,6.6,1.2,10.6,1.4,12.5C84.7,292,84.3,291.4,84,290.7L84,290.7z M67.4,0.8h-2.3c-3.3,0.2-5.7,1-6.8,1.5
	c-1.1-0.5-3.5-1.3-6.8-1.5h-2.3c-2.3,0.1-5,0.6-7.9,1.7C31.5,6.3,16.6,19,16.7,44.1c0,28.8,9.2,40.8,12.3,43.9
	c-0.9,3.5-1,6.8-1,10.8c0,0.9,0,1.9,0,2.9c0,3.9-0.1,8.5-0.6,14.7c-1.7,17.6,2.9,20.6,4.5,24.8c-2.5,6.9-29.6,80.7-29.7,80.8
	C2,222.2,2,222.4,2,222.6v0.1c0,0.5,0.2,1.1,0.7,1.4c0.1,0.1,8.4,11.6,43.6,22.1c0,0.2,0,1.2,0,1.4c0,3.4,0.2,10.3,1.4,18.8
	c0.9,6,2.1,13.6,3.5,19.8c0.7,3.1,1.5,5.8,2.3,7.9c0.4,1,0.8,1.9,1.4,2.7c0.5,0.7,1.2,1.5,2.7,1.6c0.1,0,1.7,0,1.7,0
	c2.4,0,2-4.5,2.1-6c0-3-0.4-7.5-0.4-14c0-10.7-0.5-24.1-0.7-29c0.3,0,9.2,0.3,10.1,0.4c0.2,3.2,0.9,10.3,2.9,19
	c1.3,5.9,3.1,12.6,5,18c1,2.7,1.9,5,2.9,6.8c1.1,1.7,1.7,3.3,4.2,3.5c0,0,0.1,0,0.2,0c0.8-0.1,1.7-0.2,2.6-1
	c0.8-0.8,0.9-1.9,0.9-2.6c0-2.4-0.9-5.9-1.5-13.7c-0.8-10.5-2.3-24.3-2.9-29.4c7.7-0.1,15.3-1,22.8-3c0.8-0.2,1.4-1,1.4-1.9
	c0-4.8-0.9-13.5-0.9-24.4c0-12.2,1.2-27.1,6.1-41.8c3.6-10.8,5.1-20.1,5.1-27.9c0.1-22.8-12.7-33.9-21.7-38.6
	c-1.4-0.8-2.9-1.4-4.5-2v-0.1c-5.6-14.2-2.1-14.9-4.6-25.4C91,82.1,100,71,100,48.2c0-1.4,0-2.8-0.1-4.2
	c-1.2-25-14.8-37.7-24.6-41.5C72.4,1.4,69.7,0.9,67.4,0.8L67.4,0.8z M33.2,136.2c-5.6-12.6-1.3-46,0.6-50.5c1.3-3.1,3.6-4.7,6.3-5.8
	c0.6,4.4,1.9,14.2,1.9,21.3c0,6.6-3,20,0.3,29.5c0,4.5,27.1,27.6,24.2,30.6C61.5,163,38.7,148.6,33.2,136.2L33.2,136.2z M20.5,44.1
	c0-23.4,13.4-34.5,22.2-38.1c2.9-1.1,5.5-1.5,7.6-1.5c2.2,0,3.9,0.4,5.1,0.7c0.3,0.1,0.5,0.2,0.7,0.2l0,15.6
	c-0.7,0.8-2.6,2.6-7.2,3.6c-6.6,1.4-10.3,1.5-10.3,1.5c-1,0.1-1.9,0.9-1.9,1.9c0,10.1,2.3,19.3,6,26.1c2,3.6,4.4,6.5,7.3,8.5
	c0.1,0.7,0.3,2,0.3,3.4c0,2.4-0.5,4.9-1.8,6.2c-1,1.2-4.1,1.9-7.5,3h0c0,0,0,0,0,0c-0.3,0.1-0.5,0.2-0.7,0.2
	c-3.6,1.2-7.7,3.3-9.9,8.2C27.1,79.7,20.5,68.4,20.5,44.1L20.5,44.1z M73.8,6.1c8.8,3.5,21,14.6,22.2,38.1c0.1,1.4,0.1,2.7,0.1,4
	c0,12.6-3,21.5-6,27.2c-1.4,2.6-2.5,4.3-3.5,5.6c-2.4-7.1-16.7-7.5-17.5-8.6c-1.3-1.3-1.9-3.9-1.8-6.2c0-1.9,0.3-3.4,0.4-3.9
	c2.5-2,4.8-4.8,6.6-8c3.8-6.8,6-16,6-26.1c0-0.5-0.2-1.1-0.6-1.4c-0.4-0.4-0.9-0.5-1.5-0.5c0,0-0.8,0.1-2.3,0.1
	c-2.3,0-5.9-0.3-9.4-1.5c-2.9-1.1-4.6-2.2-5.6-2.9c-0.4-0.3-0.6-0.5-0.8-0.7l0-15.5c1.1-0.4,3.2-1.1,6.2-1.1
	C68.4,4.6,70.9,4.9,73.8,6.1L73.8,6.1z M86.2,99c0.4,1.5,2.6,8.6,3.2,10.6c-0.9-0.3-5.4-1.4-6.3-1.6C83.2,107,86.1,99.3,86.2,99
	L86.2,99z M84.2,83.8c2.4,7.8,1.7,13.6,1.7,13.6c-0.7-6.7-7.7-10.9-7.3-18.5C80.6,79.9,83.4,81.2,84.2,83.8L84.2,83.8z M54.2,64.9
	c1.4,0.5,2.8,0.7,4.3,0.8c1.7,0,3.4-0.4,4.9-1c0,0.5-0.1,1-0.1,1.5c0,2.8,0.4,6.3,3,8.9c2,1.9,4.6,2.5,7.3,3.1
	c-1.2,0.9,1.5,7.7-15.7,6.9c-6-0.3-12.4-3.8-13.7-6.4c2.4-0.7,5.2-1.9,7.1-3.7c2.5-2.6,2.9-6.1,3-8.9C54.3,65.8,54.3,65.3,54.2,64.9
	L54.2,64.9z M58.2,24.6c1.3,1.1,3.5,2.5,7,3.8c4.1,1.5,8.2,1.8,10.7,1.8c0.2,0,0.4,0,0.5,0c-0.3,8.7-2.4,16.6-5.5,22.2
	c-3.4,6.1-7.8,9.5-12.3,9.4c-4.4,0-8.9-3.3-12.3-9.4c-3.2-5.7-5.3-13.6-5.5-22.4c1.8-0.2,4.9-0.6,9.1-1.4C54,27.6,56.7,26,58.2,24.6
	L58.2,24.6z M57.4,293.6c-0.9-1.9-2.1-6-3-10.6c-1.2-5.5-2.2-12-3-17.2c-1.2-8.1-1.4-14.7-1.4-18l6.3,1.3c0.2,4.5,0.7,18.4,0.7,29.2
	c0,6.6,0.4,11.3,0.4,14C57.5,292.8,57.4,293.2,57.4,293.6L57.4,293.6z"></path>
<path fill="#FFFFFF" d="M94.3,148.7c0,0-19.2-8-10.9-17.8c3.8-4.5,10.3,0.1,10.3,0.1s6-5.6,10.4-0.1
	C111.4,139.8,94.3,148.7,94.3,148.7L94.3,148.7z"></path>
<g>
	<path fill="#B56A94" d="M216,225.7c0,2.3-0.5,4.3-1.4,6c-0.9,1.7-2.2,3.1-3.7,4.2c-1.6,1.1-3.4,2-5.3,2.5c-1.9,0.5-4,0.8-6.2,0.8
		h-18.1l0.4-1.8c0.5,0,1.1-0.1,2-0.3c0.9-0.1,1.5-0.3,1.8-0.4c0.7-0.3,1.2-0.6,1.5-1.1c0.3-0.4,0.6-1,0.7-1.6l6.5-28.1
		c0-0.1,0.1-0.3,0.1-0.5c0-0.2,0-0.3,0-0.5c0-0.4-0.1-0.7-0.2-1c-0.1-0.3-0.4-0.6-0.8-0.8c-0.4-0.3-1-0.5-1.8-0.7
		c-0.7-0.2-1.3-0.3-1.7-0.3l0.4-1.8h29.1l-2.3,9.9H215c-0.1-1.9-0.5-3.6-1.2-5.1c-0.7-1.5-1.6-2.4-2.8-2.5c-0.5-0.1-1.2-0.1-1.9-0.2
		c-0.7,0-1.6-0.1-2.6-0.1h-5.6l-3.3,14.5c1,0,1.7,0,2.3-0.1c0.6,0,1.5,0,2.8,0c1.9,0,3.6,0.2,5.3,0.5c1.6,0.3,3.1,0.8,4.3,1.5
		c1.2,0.7,2.2,1.6,2.9,2.7C215.7,222.7,216,224.1,216,225.7z M209.3,225.7c0-2.2-0.7-3.8-2.1-5c-1.4-1.1-3.5-1.7-6.2-1.7
		c-1.1,0-1.9,0-2.5,0.1c-0.6,0-1.1,0.1-1.5,0.1l-3.3,14.5c0,0.2-0.1,0.3-0.1,0.5c0,0.2,0,0.4,0,0.5c0,0.8,0.4,1.5,1.1,1.9
		c0.7,0.4,2,0.6,3.8,0.6c1.9,0,3.5-0.3,4.9-1c1.4-0.7,2.6-1.6,3.5-2.8c0.8-1.1,1.5-2.3,1.9-3.6C209.1,228.5,209.3,227.1,209.3,225.7
		z"></path>
	<path fill="#B56A94" d="M238.3,235.3h-0.2c-1.7,1.4-3.3,2.5-4.8,3.3c-1.5,0.8-3.2,1.2-5.2,1.2c-1.8,0-3.1-0.5-4.2-1.5
		c-1-1-1.5-2.3-1.5-4c0-0.4,0-1,0.1-1.6c0.1-0.6,0.2-1.5,0.5-2.7l2.1-8.5c0.2-0.8,0.4-1.5,0.5-2.1c0.1-0.6,0.2-1.2,0.2-1.8
		c0-1-0.2-1.7-0.5-2c-0.3-0.3-1-0.5-2.1-0.5c-0.4,0-0.9,0.1-1.5,0.2c-0.6,0.2-1.1,0.3-1.4,0.4l0.4-1.8c1.4-0.6,2.7-1.1,3.8-1.5
		c1.1-0.3,2-0.5,2.6-0.5c1.5,0,2.5,0.3,3.2,1s1.1,1.6,1.1,3c0,0.3,0,0.8-0.1,1.3c-0.1,0.6-0.2,1.1-0.3,1.7l-2.5,10
		c-0.2,0.8-0.3,1.5-0.5,2.1c-0.1,0.7-0.2,1.2-0.2,1.5c0,1.2,0.3,2.2,0.9,2.9c0.6,0.7,1.5,1.1,2.6,1.1c1.3,0,2.6-0.3,3.9-1
		c1.3-0.7,2.5-1.6,3.6-2.7l4.5-20.5l4.7-0.3l0.3,0.4l-4.7,21.4c-0.7,3.1-1.6,5.8-2.7,8c-1.1,2.2-2.3,4-3.8,5.4
		c-1.5,1.4-3.1,2.5-4.9,3.1c-1.8,0.6-3.7,1-6,1c-1.5,0-2.8-0.1-3.7-0.3c-0.9-0.2-1.6-0.5-2.2-0.9c-0.5-0.4-0.9-0.8-1.1-1.2
		c-0.2-0.5-0.3-0.9-0.3-1.4c0-0.8,0.2-1.5,0.7-2.1c0.5-0.6,1.2-0.9,2.1-0.9c0.7,0,1.2,0.2,1.7,0.6c0.5,0.4,0.9,0.8,1.1,1.3
		c0.3,0.5,0.6,1,0.9,1.7c0.3,0.6,0.5,1.1,0.7,1.5h0.7c1,0,2.1-0.3,3.3-0.8c1.2-0.5,2.2-1.3,3.2-2.4c1-1.2,2-2.7,2.8-4.5
		C237.2,240.1,237.8,237.8,238.3,235.3z"></path>
	<path fill="#B56A94" d="M297.7,236.2l-0.4,1.7c-1.7,0.7-3,1.1-4,1.4c-1,0.3-1.9,0.4-2.6,0.4c-1.5,0-2.6-0.4-3.3-1.1
		s-1.1-1.7-1.1-2.8c0-0.4,0-0.8,0.1-1.3c0.1-0.5,0.2-1.1,0.4-1.7l2.7-10.2c0.2-0.8,0.4-1.5,0.5-2.1c0.1-0.6,0.2-1.1,0.2-1.5
		c0-1.2-0.3-2.2-0.8-2.9c-0.5-0.7-1.4-1.1-2.5-1.1c-1.2,0-2.4,0.3-3.6,0.9c-1.2,0.6-2.5,1.6-4,3.2l-4.8,20.3h-5.1l4.3-18.3
		c0.1-0.4,0.2-0.8,0.3-1.3c0.1-0.4,0.1-0.8,0.1-1c0-1.2-0.3-2.1-0.9-2.8c-0.6-0.7-1.5-1-2.6-1c-1,0-2.2,0.3-3.4,0.8
		c-1.2,0.5-2.7,1.7-4.3,3.5l-4.7,20.1h-5.1l4.1-17.7c0.1-0.6,0.3-1.3,0.4-2.1c0.1-0.7,0.2-1.4,0.2-1.9c0-1.1-0.2-1.8-0.5-2.1
		c-0.3-0.3-1-0.5-2-0.5c-0.4,0-0.9,0.1-1.6,0.2c-0.6,0.2-1.1,0.3-1.5,0.4l0.4-1.8c1.4-0.6,2.7-1.1,3.8-1.4c1.1-0.3,2-0.5,2.8-0.5
		c1.5,0,2.5,0.4,3.1,1.2c0.6,0.8,0.9,1.9,1,3.2h0.2c2.1-1.7,3.9-2.9,5.3-3.6c1.4-0.7,3-1.1,4.9-1.1c1.6,0,2.9,0.5,3.9,1.4
		s1.6,2.1,1.7,3.5h0.1c1.9-1.6,3.7-2.9,5.2-3.7c1.5-0.8,3.3-1.3,5.3-1.3c1.7,0,3.1,0.5,4,1.5c0.9,1,1.4,2.3,1.4,4
		c0,0.3,0,0.9-0.1,1.8c-0.1,0.8-0.3,1.7-0.5,2.5l-2.3,8.8c-0.2,0.6-0.3,1.3-0.5,2c-0.1,0.8-0.2,1.3-0.2,1.8c0,1,0.2,1.7,0.7,2.1
		c0.4,0.4,1.2,0.6,2.2,0.6c0.3,0,0.8,0,1.5-0.1C296.8,236.4,297.3,236.3,297.7,236.2z"></path>
	<path fill="#B56A94" d="M318.6,235.4h-0.2c-0.8,0.7-1.6,1.3-2.4,1.9c-0.8,0.6-1.5,1-2.3,1.4c-0.9,0.4-1.7,0.8-2.4,0.9
		c-0.7,0.2-1.6,0.3-2.8,0.3c-1.8,0-3.1-0.5-4.1-1.5c-1-1-1.4-2.3-1.4-4c0-0.4,0-1,0.1-1.6c0.1-0.6,0.2-1.5,0.5-2.7l2.1-8.7
		c0.2-0.8,0.3-1.5,0.4-2.1c0.1-0.6,0.2-1.2,0.2-1.8c0-1-0.2-1.7-0.5-2c-0.3-0.3-1-0.5-2.1-0.5c-0.4,0-0.9,0.1-1.5,0.2
		c-0.6,0.2-1.1,0.3-1.4,0.4l0.4-1.8c1.4-0.6,2.7-1.1,3.8-1.5c1.1-0.3,2-0.5,2.6-0.5c1.5,0,2.5,0.3,3.2,1c0.7,0.7,1,1.7,1,2.9
		c0,0.3,0,0.8-0.1,1.3s-0.2,1.1-0.3,1.7l-2.4,10.1c-0.2,0.8-0.3,1.5-0.4,2.1c-0.1,0.7-0.2,1.2-0.2,1.5c0,1.2,0.3,2.2,0.8,2.9
		c0.5,0.7,1.4,1.1,2.5,1.1c1.2,0,2.4-0.3,3.6-0.9c1.2-0.6,2.5-1.5,3.7-2.8l4.8-20.6l4.8-0.3l0.3,0.4l-4.1,17.6
		c-0.2,0.7-0.3,1.5-0.5,2.3c-0.1,0.8-0.2,1.3-0.2,1.6c0,1,0.2,1.7,0.7,2.1c0.4,0.4,1.2,0.6,2.2,0.6c0.3,0,0.8-0.1,1.5-0.2
		c0.6-0.1,1.1-0.2,1.5-0.4l-0.4,1.7c-1.5,0.6-2.8,1.1-3.8,1.4s-1.9,0.5-2.8,0.5c-1.5,0-2.6-0.4-3.3-1.3
		C319,237.6,318.6,236.6,318.6,235.4z"></path>
	<path fill="#B56A94" d="M362.2,214.9c0,0.8-0.3,1.5-0.8,2.1c-0.5,0.6-1.2,0.9-2.2,0.9c-0.6,0-1.2-0.2-1.8-0.6
		c-0.6-0.4-1.3-0.9-2-1.6c-0.3,0.2-0.7,0.8-1,1.6s-0.7,1.6-1.1,2.3c-0.4,0.9-1,1.8-1.6,2.8c-0.7,1-1.5,1.8-2.4,2.4v0.2
		c1.1,0.5,2,1.2,2.6,2c0.6,0.8,1,1.9,1.2,3.4c0,0.2,0.1,0.6,0.2,1.2c0.1,0.6,0.2,1.1,0.3,1.6c0.2,1.1,0.6,2,1.1,2.6
		c0.6,0.6,1.5,1,2.8,1c0.5,0,1.1-0.1,1.8-0.2c0.7-0.1,1.2-0.3,1.5-0.4l-0.4,1.8c-1.9,0.7-3.2,1.2-4,1.4c-0.8,0.2-1.8,0.3-2.8,0.3
		c-1.2,0-2.2-0.3-3-1c-0.9-0.7-1.4-1.9-1.7-3.5c-0.1-0.5-0.2-1.2-0.3-1.9c-0.1-0.7-0.2-1.3-0.3-1.8c-0.3-1.9-0.8-3.1-1.3-3.7
		c-0.5-0.6-1.4-0.9-2.7-0.9c-1,0-1.6,0-1.8,0l-2.8,12.4h-5.1l4.1-17.7c0.1-0.6,0.3-1.3,0.4-2c0.1-0.8,0.2-1.4,0.2-1.9
		c0-1-0.2-1.7-0.5-2c-0.3-0.3-1-0.5-2.1-0.5c-0.4,0-0.9,0.1-1.5,0.2c-0.6,0.2-1.1,0.3-1.5,0.4l0.4-1.8c1.4-0.6,2.7-1.1,3.8-1.5
		c1.1-0.3,2-0.5,2.6-0.5c1.5,0,2.5,0.3,3.2,1c0.7,0.7,1,1.7,1,2.9c0,0.3,0,0.7-0.1,1.3c-0.1,0.6-0.2,1.2-0.4,2l-1.3,5.6h1.6
		c0.6,0,1.2-0.1,1.8-0.3c0.6-0.2,1.1-0.6,1.7-1c0.6-0.5,1.2-1.2,1.6-1.9c0.4-0.7,0.9-1.5,1.3-2.4c0.4-0.9,0.8-1.7,1.2-2.5
		c0.4-0.8,1-1.6,1.8-2.4c0.7-0.8,1.5-1.4,2.4-1.8c0.9-0.4,1.8-0.6,2.8-0.6c0.9,0,1.7,0.3,2.3,0.8C361.9,213.3,362.2,214,362.2,214.9
		z"></path>
	<path fill="#B56A94" d="M404,214.6c0,3.2-0.3,6.3-1,9.5c-0.7,3.2-1.6,5.9-2.9,8.2c-1.5,2.6-3.3,4.6-5.4,5.9
		c-2.1,1.3-4.4,1.9-7.1,1.9c-3.2,0-5.8-1-7.6-3.1c-1.9-2.1-2.8-4.8-2.8-8.1c0-4.7,1.5-8.7,4.5-12.1c3-3.4,6.6-5.1,10.9-5.1
		c1,0,2.1,0.1,3.3,0.4c1.2,0.3,2.2,0.8,3,1.5c-0.2-4.3-1-7.7-2.6-10.1c-1.5-2.5-3.5-3.7-5.8-3.7c-0.8,0-1.6,0.1-2.2,0.2
		c-0.6,0.2-1.3,0.4-1.8,0.7c-0.4,0.2-0.8,0.5-1.2,0.8c-0.4,0.3-0.7,0.6-0.9,0.7l-1.1-1.3c1.3-1.3,2.7-2.3,4.1-3s3-1,4.7-1
		c1.7,0,3.3,0.4,4.7,1.1c1.4,0.7,2.7,1.8,3.9,3.3c1.1,1.5,2,3.3,2.6,5.5C403.7,208.9,404,211.5,404,214.6z M395.7,231.6
		c0.9-1.9,1.6-4.1,2.1-6.7c0.5-2.6,0.9-5.2,1-7.8c-0.9-1.3-1.8-2.2-2.7-2.7c-0.9-0.5-2-0.8-3.1-0.8c-2.8,0-5.2,1.7-7.2,5
		c-2,3.3-3,7.1-3,11.1c0,2.8,0.4,4.8,1.2,6.3s2.2,2.1,4.1,2.1c1.6,0,3.1-0.6,4.4-1.8S394.8,233.5,395.7,231.6z"></path>
	<path fill="#B56A94" d="M434.6,237.8c-1.6,0.7-2.9,1.1-3.8,1.4c-0.9,0.3-1.8,0.4-2.7,0.4c-1.5,0-2.5-0.4-3.3-1.1
		c-0.7-0.8-1.1-1.7-1.1-2.8c0-0.4,0-0.8,0.1-1.3c0.1-0.5,0.2-1.1,0.4-1.7l2.7-10.7c0.4-1.8,0.8-3.1,1-4.2c0.2-1,0.3-1.8,0.3-2.4
		c0-0.3-0.3-0.7-0.9-1c-0.6-0.4-1.3-0.6-2.1-0.6c-1.6,0-3,0.9-4.3,2.7c-1.2,1.8-2.6,4.7-4,8.9c-0.6,1.6-1.2,3.3-1.9,5.1
		c-0.7,1.8-1.5,3.3-2.3,4.6c-0.9,1.4-1.9,2.6-2.8,3.4c-1,0.8-2.1,1.2-3.3,1.2c-0.9,0-1.6-0.3-2.1-0.9c-0.5-0.6-0.8-1.3-0.8-2.1
		c0-0.7,0.3-1.4,0.8-2.1c0.5-0.7,1.3-1,2.2-1c0.5,0,1,0.1,1.5,0.3c0.5,0.2,1.1,0.5,1.7,0.8c0.8-0.8,1.7-2.3,2.5-4.5
		c0.9-2.2,1.5-3.9,1.9-5.1c0.5-1.4,1-3,1.7-4.7c0.7-1.7,1.4-3.2,2.3-4.4c0.9-1.3,2.1-2.4,3.5-3.2c1.4-0.8,3.1-1.2,5.1-1.2
		c2,0,3.6,0.3,4.7,1c1.1,0.7,1.7,1.4,1.7,2.4c0,0.5-0.1,1.3-0.3,2.4s-0.4,2.1-0.7,3l-2.6,9.8c-0.2,0.6-0.3,1.3-0.5,2
		c-0.2,0.8-0.2,1.3-0.2,1.8c0,1,0.2,1.7,0.7,2.1c0.5,0.4,1.2,0.6,2.3,0.6c0.3,0,0.8-0.1,1.5-0.2c0.6-0.1,1.1-0.2,1.5-0.4
		L434.6,237.8z"></path>
	<path fill="#B56A94" d="M464.1,215c0,0.5-0.1,1.3-0.3,2.4c-0.2,1.1-0.4,2-0.7,3l-2.6,9.8c-0.2,0.6-0.3,1.3-0.5,2
		c-0.2,0.8-0.2,1.3-0.2,1.8c0,1,0.2,1.7,0.7,2.1c0.5,0.4,1.2,0.6,2.3,0.6c0.3,0,0.8-0.1,1.5-0.2c0.6-0.1,1.1-0.2,1.5-0.4l-0.4,1.8
		c-1.6,0.7-2.9,1.1-3.8,1.4c-0.9,0.3-1.8,0.4-2.7,0.4c-1.5,0-2.5-0.4-3.3-1.1c-0.7-0.8-1.1-1.7-1.1-2.8c0-0.4,0-0.8,0.1-1.3
		c0.1-0.5,0.2-1.1,0.4-1.7l1.4-5.5h-2.4c-0.7,0-1.2,0.1-1.7,0.3c-0.5,0.2-1,0.5-1.6,1c-0.6,0.5-1.2,1.1-1.7,1.9
		c-0.5,0.7-1,1.5-1.4,2.2c-0.5,0.8-0.9,1.6-1.4,2.3c-0.5,0.8-1.1,1.6-1.9,2.4c-0.9,0.9-1.7,1.5-2.5,1.9c-0.8,0.3-1.6,0.5-2.5,0.5
		c-1,0-1.7-0.3-2.3-0.8c-0.6-0.5-0.9-1.2-0.9-2.2c0-0.8,0.3-1.5,0.8-2.1c0.5-0.6,1.2-0.8,2.2-0.8c0.6,0,1,0.1,1.4,0.2
		c0.4,0.2,1,0.7,1.9,1.5c0.3-0.3,0.6-0.8,1-1.5c0.3-0.7,0.8-1.5,1.3-2.5c0.4-0.8,1-1.6,1.8-2.5c0.7-0.9,1.5-1.5,2.3-2v-0.2
		c-2-0.3-3.6-1-4.8-2.2c-1.2-1.2-1.8-2.7-1.8-4.4c0-2.6,1.3-4.7,3.9-6.3c2.6-1.6,5.8-2.4,9.8-2.4c2.6,0,4.7,0.3,6.1,1
		C463.4,213.3,464.1,214.1,464.1,215z M454.4,213.5c-0.8,0-1.5,0.1-2.3,0.4c-0.8,0.3-1.5,0.6-2.2,1.2c-0.6,0.5-1.2,1.1-1.6,2
		c-0.4,0.8-0.6,1.7-0.6,2.8c0,1.6,0.5,2.9,1.6,3.9c1,1,2.6,1.5,4.7,1.5h2.8l0.8-3.2c0.4-1.5,0.7-2.9,0.9-4c0.2-1.1,0.3-2,0.3-2.6
		c0-0.4-0.4-0.8-1.1-1.3C457,213.7,455.9,213.5,454.4,213.5z"></path>
	<path fill="#B56A94" d="M509,222.3c0,2.3-0.4,4.5-1.1,6.7s-1.8,4-3.2,5.6c-1.4,1.7-3.1,3-5.1,4c-1.9,1-4.2,1.4-6.7,1.4
		c-1.4,0-2.7-0.2-4-0.7c-1.3-0.5-2.3-1.2-3.3-2.2c-0.9-1-1.7-2.3-2.2-3.9c-0.5-1.6-0.8-3.4-0.8-5.5c0-2.8,0.4-5.9,1.3-9.3
		c0.9-3.4,2-6.5,3.3-9.3c0.5-1.1,1.2-2.2,2-3.3c0.8-1.1,1.6-2,2.6-2.8c1.1-0.9,2.2-1.5,3.4-2c1.2-0.5,2.7-0.8,4.4-0.9
		c1.3-0.1,2.6-0.1,3.9-0.2c1.3-0.1,2.3-0.1,3.2-0.2c0.8-0.1,1.5-0.3,2.2-0.6c0.7-0.4,1.5-1,2.3-2l1.4,1.1c-0.6,0.6-1.2,1.4-1.8,2.1
		s-1.3,1.5-1.9,2.1c-1,1-1.8,1.6-2.3,1.8c-0.5,0.2-1.4,0.3-2.8,0.4c-0.9,0-1.8,0.1-2.6,0.2c-0.8,0.1-1.7,0.1-2.6,0.2
		c-1.4,0.1-2.6,0.4-3.7,0.9c-1.1,0.5-2,1.2-2.9,2c-1.2,1.1-2.3,2.7-3.2,4.7c-1,2.1-1.7,4.3-2.3,6.7l0.4,0.1c1.4-2.4,3.1-4.2,5.1-5.6
		c2-1.4,4.2-2,6.6-2c3.3,0,5.9,0.9,7.8,2.8C508.1,216.4,509,219,509,222.3z M500.9,232.8c0.9-1.7,1.5-3.4,1.9-5.4
		c0.4-1.9,0.6-4,0.6-6.1c0-2.5-0.5-4.4-1.4-5.7c-0.9-1.3-2.3-2-4-2c-1.8,0-3.4,0.6-4.7,1.7c-1.4,1.1-2.5,2.6-3.3,4.4
		c-0.7,1.5-1.3,3.3-1.7,5.2c-0.4,1.9-0.6,3.7-0.6,5.4c0,2.6,0.5,4.5,1.5,5.8c1,1.3,2.4,2,4.3,2c1.6,0,3.1-0.5,4.3-1.5
		C499.1,235.6,500.1,234.4,500.9,232.8z"></path>
	<path fill="#B56A94" d="M530.5,235.3h-0.2c-1.7,1.4-3.3,2.5-4.8,3.3c-1.5,0.8-3.2,1.2-5.2,1.2c-1.8,0-3.1-0.5-4.2-1.5
		c-1-1-1.5-2.3-1.5-4c0-0.4,0-1,0.1-1.6c0.1-0.6,0.2-1.5,0.5-2.7l2.1-8.5c0.2-0.8,0.4-1.5,0.5-2.1s0.2-1.2,0.2-1.8
		c0-1-0.2-1.7-0.5-2s-1-0.5-2.1-0.5c-0.4,0-0.9,0.1-1.5,0.2c-0.6,0.2-1.1,0.3-1.4,0.4l0.4-1.8c1.4-0.6,2.7-1.1,3.8-1.5
		c1.1-0.3,2-0.5,2.6-0.5c1.5,0,2.5,0.3,3.2,1c0.7,0.7,1.1,1.6,1.1,3c0,0.3,0,0.8-0.1,1.3c-0.1,0.6-0.2,1.1-0.3,1.7l-2.5,10
		c-0.2,0.8-0.3,1.5-0.5,2.1c-0.1,0.7-0.2,1.2-0.2,1.5c0,1.2,0.3,2.2,0.9,2.9c0.6,0.7,1.5,1.1,2.6,1.1c1.3,0,2.6-0.3,3.9-1
		c1.3-0.7,2.5-1.6,3.6-2.7l4.5-20.5l4.7-0.3l0.3,0.4l-4.7,21.4c-0.7,3.1-1.6,5.8-2.7,8c-1.1,2.2-2.3,4-3.8,5.4
		c-1.5,1.4-3.1,2.5-4.9,3.1c-1.8,0.6-3.7,1-6,1c-1.6,0-2.8-0.1-3.7-0.3c-0.9-0.2-1.6-0.5-2.2-0.9c-0.5-0.4-0.9-0.8-1.1-1.2
		c-0.2-0.5-0.3-0.9-0.3-1.4c0-0.8,0.2-1.5,0.7-2.1c0.5-0.6,1.2-0.9,2.1-0.9c0.7,0,1.2,0.2,1.7,0.6s0.9,0.8,1.1,1.3
		c0.3,0.5,0.6,1,0.9,1.7c0.3,0.6,0.5,1.1,0.7,1.5h0.7c1,0,2.1-0.3,3.3-0.8c1.2-0.5,2.2-1.3,3.2-2.4c1-1.2,2-2.7,2.8-4.5
		C529.3,240.1,530,237.8,530.5,235.3z"></path>
	<path fill="#B56A94" d="M571,214.6c0,3.2-0.3,6.3-1,9.5c-0.7,3.2-1.6,5.9-2.9,8.2c-1.5,2.6-3.3,4.6-5.4,5.9
		c-2.1,1.3-4.4,1.9-7.1,1.9c-3.2,0-5.8-1-7.6-3.1c-1.9-2.1-2.8-4.8-2.8-8.1c0-4.7,1.5-8.7,4.5-12.1c3-3.4,6.6-5.1,10.9-5.1
		c1,0,2.1,0.1,3.3,0.4c1.2,0.3,2.2,0.8,3,1.5c-0.2-4.3-1-7.7-2.6-10.1c-1.5-2.5-3.5-3.7-5.8-3.7c-0.8,0-1.6,0.1-2.2,0.2
		c-0.6,0.2-1.3,0.4-1.8,0.7c-0.4,0.2-0.8,0.5-1.2,0.8c-0.4,0.3-0.7,0.6-0.9,0.7l-1.1-1.3c1.3-1.3,2.7-2.3,4.1-3c1.4-0.7,3-1,4.7-1
		c1.7,0,3.3,0.4,4.7,1.1c1.4,0.7,2.7,1.8,3.9,3.3c1.1,1.5,2,3.3,2.6,5.5C570.7,208.9,571,211.5,571,214.6z M562.7,231.6
		c0.9-1.9,1.6-4.1,2.1-6.7c0.5-2.6,0.9-5.2,1-7.8c-0.9-1.3-1.8-2.2-2.7-2.7c-0.9-0.5-2-0.8-3.1-0.8c-2.8,0-5.2,1.7-7.2,5
		c-2,3.3-3,7.1-3,11.1c0,2.8,0.4,4.8,1.2,6.3c0.8,1.4,2.2,2.1,4.1,2.1c1.6,0,3.1-0.6,4.4-1.8C560.7,235.1,561.8,233.5,562.7,231.6z"></path>
	<path fill="#B56A94" d="M591.6,235.3h-0.2c-1.7,1.4-3.3,2.5-4.8,3.3c-1.5,0.8-3.2,1.2-5.2,1.2c-1.8,0-3.1-0.5-4.2-1.5
		c-1-1-1.5-2.3-1.5-4c0-0.4,0-1,0.1-1.6c0.1-0.6,0.2-1.5,0.5-2.7l2.1-8.5c0.2-0.8,0.4-1.5,0.5-2.1c0.1-0.6,0.2-1.2,0.2-1.8
		c0-1-0.2-1.7-0.5-2c-0.3-0.3-1-0.5-2.1-0.5c-0.4,0-0.9,0.1-1.5,0.2c-0.6,0.2-1.1,0.3-1.4,0.4l0.4-1.8c1.4-0.6,2.7-1.1,3.8-1.5
		c1.1-0.3,2-0.5,2.6-0.5c1.5,0,2.5,0.3,3.2,1c0.7,0.7,1.1,1.6,1.1,3c0,0.3,0,0.8-0.1,1.3c-0.1,0.6-0.2,1.1-0.3,1.7l-2.5,10
		c-0.2,0.8-0.3,1.5-0.5,2.1c-0.1,0.7-0.2,1.2-0.2,1.5c0,1.2,0.3,2.2,0.9,2.9c0.6,0.7,1.5,1.1,2.6,1.1c1.3,0,2.6-0.3,3.9-1
		c1.3-0.7,2.5-1.6,3.6-2.7l4.5-20.5l4.7-0.3l0.3,0.4l-4.7,21.4c-0.7,3.1-1.6,5.8-2.7,8c-1.1,2.2-2.3,4-3.8,5.4
		c-1.5,1.4-3.1,2.5-4.9,3.1c-1.8,0.6-3.7,1-6,1c-1.6,0-2.8-0.1-3.7-0.3c-0.9-0.2-1.6-0.5-2.2-0.9c-0.5-0.4-0.9-0.8-1.1-1.2
		c-0.2-0.5-0.3-0.9-0.3-1.4c0-0.8,0.2-1.5,0.7-2.1c0.5-0.6,1.2-0.9,2.1-0.9c0.7,0,1.2,0.2,1.7,0.6c0.5,0.4,0.9,0.8,1.1,1.3
		c0.3,0.5,0.6,1,0.9,1.7c0.3,0.6,0.5,1.1,0.7,1.5h0.7c1,0,2.1-0.3,3.3-0.8c1.2-0.5,2.2-1.3,3.2-2.4c1-1.2,2-2.7,2.8-4.5
		C590.4,240.1,591.1,237.8,591.6,235.3z"></path>
	<path fill="#B56A94" d="M622.8,235L622.8,235c-0.8,0.6-1.6,1.3-2.5,2c-0.9,0.7-1.7,1.2-2.4,1.6c-0.9,0.5-1.8,0.8-2.5,1.1
		c-0.7,0.2-1.7,0.3-2.8,0.3c-1.8,0-3.1-0.5-4.1-1.5c-0.9-1-1.4-2.3-1.4-4c0-0.4,0-1,0.1-1.6c0.1-0.6,0.2-1.5,0.5-2.7l2.1-8.7
		c0.2-0.8,0.3-1.5,0.5-2.1c0.1-0.6,0.2-1.2,0.2-1.8c0-1-0.2-1.7-0.5-2c-0.3-0.3-1-0.5-2.1-0.5c-0.4,0-0.9,0.1-1.5,0.2
		c-0.6,0.2-1.1,0.3-1.4,0.4l0.4-1.8c1.4-0.6,2.7-1.1,3.8-1.5c1.1-0.3,2-0.5,2.6-0.5c1.5,0,2.5,0.3,3.2,1c0.7,0.7,1,1.7,1,2.9
		c0,0.3,0,0.8-0.1,1.3c-0.1,0.6-0.2,1.1-0.3,1.7l-2.4,10.1c-0.2,0.8-0.3,1.5-0.4,2.1c-0.1,0.7-0.2,1.2-0.2,1.5
		c0,1.2,0.3,2.2,0.8,2.9c0.5,0.7,1.4,1.1,2.5,1.1c0.9,0,1.9-0.2,3-0.8c1.1-0.5,2.4-1.5,4-2.9l4.8-20.6l4.8-0.3l0.3,0.4l-3.8,16.6
		c-0.1,0.6-0.3,1.3-0.4,2.1c-0.1,0.8-0.2,1.3-0.2,1.7c0,1.2,0.3,2.2,0.8,2.9c0.5,0.7,1.4,1,2.5,1c0.9,0,2-0.3,3.2-0.9
		c1.2-0.6,2.6-1.6,4.1-3.1l4.7-20.3l4.8-0.3l0.3,0.4l-4.1,17.6c-0.2,0.7-0.3,1.5-0.5,2.3c-0.1,0.8-0.2,1.3-0.2,1.6
		c0,1,0.2,1.7,0.7,2.1c0.4,0.4,1.2,0.6,2.2,0.6c0.3,0,0.8-0.1,1.5-0.2c0.6-0.1,1.1-0.2,1.5-0.4l-0.4,1.7c-0.5,0.2-0.9,0.4-1.1,0.7
		c-0.3,0.3-0.5,0.7-0.7,1.1c-0.2,0.4-0.3,0.9-0.4,1.4c-0.1,0.5-0.1,0.9-0.2,1.3l-0.3,3.7c-0.2,1.8-0.9,3.2-2.3,4
		c-1.3,0.8-3.1,1.3-5.5,1.4l-0.5-1.7c1.5-0.2,2.5-0.5,2.9-0.8c0.5-0.3,0.8-0.9,0.9-1.8l0.5-2.7c0.1-0.5,0.3-1,0.5-1.4
		c0.2-0.4,0.5-0.9,0.8-1.3c0.3-0.4,0.6-0.8,1-1.1c0.3-0.3,0.6-0.7,1-1.1l-0.1-0.2c-0.4,0.1-0.9,0.2-1.5,0.4
		c-0.6,0.2-1.2,0.2-1.6,0.2c-1.5,0-2.6-0.4-3.3-1.3s-1.1-1.9-1.1-3.2h-0.2c-0.8,0.7-1.5,1.3-2.3,1.9c-0.7,0.6-1.5,1.1-2.3,1.5
		c-0.9,0.5-1.7,0.8-2.6,1c-0.8,0.2-1.7,0.3-2.6,0.3c-1.7,0-3-0.4-4-1.3C623.5,237.7,622.9,236.5,622.8,235z"></path>
	<path fill="#B56A94" d="M670.6,235.4h-0.2c-0.8,0.7-1.6,1.3-2.4,1.9c-0.8,0.6-1.5,1-2.3,1.4c-0.9,0.4-1.7,0.8-2.4,0.9
		c-0.7,0.2-1.6,0.3-2.8,0.3c-1.7,0-3.1-0.5-4.1-1.5c-1-1-1.4-2.3-1.4-4c0-0.4,0-1,0.1-1.6s0.2-1.5,0.5-2.7l2.1-8.7
		c0.2-0.8,0.3-1.5,0.4-2.1c0.1-0.6,0.2-1.2,0.2-1.8c0-1-0.2-1.7-0.5-2c-0.3-0.3-1-0.5-2.1-0.5c-0.4,0-0.9,0.1-1.5,0.2
		c-0.6,0.2-1.1,0.3-1.4,0.4l0.4-1.8c1.4-0.6,2.7-1.1,3.8-1.5c1.1-0.3,2-0.5,2.6-0.5c1.5,0,2.5,0.3,3.2,1c0.7,0.7,1,1.7,1,2.9
		c0,0.3,0,0.8-0.1,1.3c-0.1,0.6-0.2,1.1-0.3,1.7l-2.4,10.1c-0.2,0.8-0.3,1.5-0.4,2.1c-0.1,0.7-0.2,1.2-0.2,1.5
		c0,1.2,0.3,2.2,0.8,2.9c0.5,0.7,1.4,1.1,2.5,1.1c1.2,0,2.4-0.3,3.6-0.9c1.2-0.6,2.5-1.5,3.7-2.8l4.8-20.6l4.8-0.3l0.3,0.4
		l-4.1,17.6c-0.2,0.7-0.3,1.5-0.5,2.3c-0.1,0.8-0.2,1.3-0.2,1.6c0,1,0.2,1.7,0.7,2.1c0.4,0.4,1.2,0.6,2.2,0.6c0.3,0,0.8-0.1,1.5-0.2
		c0.6-0.1,1.1-0.2,1.5-0.4l-0.4,1.7c-1.5,0.6-2.8,1.1-3.8,1.4c-1,0.3-1.9,0.5-2.8,0.5c-1.5,0-2.6-0.4-3.3-1.3
		C671,237.6,670.6,236.6,670.6,235.4z"></path>
	<path fill="#B56A94" d="M712.7,214.7c0,1.1-0.4,1.8-1.2,2.3c-0.8,0.5-1.6,0.8-2.5,0.8c-0.5,0-1.2-0.1-1.9-0.3
		c-0.7-0.2-1.2-0.4-1.6-0.5c-0.8,0.7-1.8,1.8-2.9,3.2c-1.1,1.4-2.1,3-3.1,4.7c0.4,1.7,0.8,3.2,1.2,4.4c0.3,1.2,0.7,2.5,1.1,3.7
		c0.3,1.1,0.9,2,1.6,2.7c0.7,0.7,1.7,1,2.9,1c0.4,0,1-0.1,1.8-0.2s1.4-0.3,1.8-0.4l-0.5,1.8c-1.7,0.7-3.1,1.2-4,1.4
		c-0.9,0.2-1.8,0.3-2.9,0.3c-1.3,0-2.3-0.3-3.2-0.9c-0.8-0.6-1.5-1.8-2-3.6c-0.4-1.3-0.7-2.4-0.9-3.3c-0.2-0.9-0.5-1.8-0.7-2.7
		c-0.8,1.3-1.5,2.3-2.1,3.2c-0.5,0.9-1.5,2.1-2.7,3.7c-1.1,1.3-2.1,2.3-3.1,2.9c-0.9,0.6-1.9,0.8-2.8,0.8c-0.9,0-1.6-0.2-2.1-0.8
		c-0.6-0.5-0.8-1.2-0.8-2.1c0-0.9,0.3-1.6,1-2.2c0.7-0.6,1.6-0.9,2.7-0.9c0.6,0,1.2,0.1,1.7,0.3c0.6,0.2,1.1,0.4,1.7,0.6
		c0.7-0.7,1.6-1.7,2.7-3.1c1.1-1.4,2.2-3,3.2-4.7c-0.3-1.3-0.7-2.7-1.1-4.3c-0.4-1.5-0.8-2.9-1.2-4.1c-0.5-1.5-1-2.4-1.6-2.8
		c-0.6-0.4-1.4-0.6-2.4-0.6c-0.5,0-1.1,0.1-1.7,0.2c-0.6,0.1-1.1,0.3-1.7,0.4l0.5-1.8c1.4-0.6,2.7-1.1,3.8-1.4
		c1.1-0.4,1.9-0.6,2.3-0.6c1.3,0,2.3,0.3,3.1,0.9c0.8,0.6,1.5,1.8,2,3.5c0.6,2,0.9,3.3,1,3.7c0.1,0.4,0.3,1.3,0.6,2.6
		c0.9-1.3,1.6-2.5,2.1-3.4c0.5-0.9,1.4-2.2,2.7-3.7c1.1-1.4,2.2-2.4,3.2-3c1-0.5,1.9-0.8,2.8-0.8c0.8,0,1.5,0.3,2,0.8
		C712.5,213.2,712.7,213.8,712.7,214.7z"></path>
	<path fill="#B56A94" d="M741.9,238.8c-0.4-4.7-0.8-8.5-1.1-11.2c-0.3-2.8-0.9-5.8-1.5-9.2H739c-0.7,4.1-1.7,7.5-2.8,10.2
		c-1.1,2.7-2.3,4.9-3.5,6.6c-1.1,1.6-2.3,2.8-3.4,3.5c-1.1,0.7-2,1.1-2.7,1.1c-1,0-1.7-0.3-2.2-0.8c-0.4-0.6-0.6-1.3-0.6-2.1
		c0-0.7,0.3-1.4,0.8-2.1c0.5-0.7,1.3-1,2.2-1c0.5,0,1,0.1,1.6,0.3c0.6,0.2,1.2,0.5,1.8,0.8c2-2.4,3.6-5.6,4.8-9.5
		c1.2-3.9,1.9-7.5,2.2-10.7h-4.8l0.5-1.9l9-0.5c0.9,3,1.7,6.1,2.4,9.3c0.7,3.2,1.2,6.8,1.5,10.6l12.7-19.6l4.9-0.4l0.3,0.4l-4,17.6
		c-0.1,0.5-0.3,1.2-0.4,2.1c-0.2,0.8-0.2,1.4-0.2,1.8c0,1,0.2,1.7,0.7,2.1c0.5,0.4,1.2,0.6,2.2,0.6c0.3,0,0.8-0.1,1.5-0.2
		c0.6-0.1,1.1-0.2,1.5-0.4l-0.4,1.8c-1.6,0.7-2.9,1.1-3.7,1.4c-0.9,0.3-1.7,0.4-2.7,0.4c-1.5,0-2.5-0.4-3.2-1.1
		c-0.7-0.8-1-1.7-1-2.8c0-0.4,0-0.9,0.1-1.3s0.2-1,0.3-1.8l3.6-15l-0.3-0.1l-14,21.2H741.9z"></path>
	<path fill="#B56A94" d="M785.5,235.6h-0.2c-0.4,0.3-0.9,0.7-1.4,1.2c-0.6,0.5-1.2,1-2,1.4c-0.7,0.5-1.5,0.9-2.3,1.2
		c-0.8,0.3-1.7,0.5-2.7,0.5c-2.6,0-4.7-0.9-6.2-2.8c-1.5-1.9-2.3-4.5-2.3-7.8c0-2.3,0.4-4.5,1.3-6.6c0.8-2.1,2-4.1,3.5-5.7
		c1.4-1.6,3.1-2.9,5-3.9c1.9-1,3.9-1.5,6-1.5c1.3,0,2.5,0.2,3.7,0.5c1.2,0.3,2.1,0.7,2.8,1.2l5-1.3l0.3,0.4l-4.2,17.7
		c-0.1,0.6-0.3,1.3-0.4,2.1c-0.2,0.8-0.2,1.4-0.2,1.8c0,1,0.2,1.7,0.7,2.1c0.4,0.4,1.2,0.5,2.2,0.5c0.3,0,0.8-0.1,1.5-0.2
		c0.6-0.1,1.1-0.2,1.5-0.4l-0.4,1.7c-1.6,0.7-2.9,1.1-3.7,1.4c-0.8,0.3-1.8,0.4-2.9,0.4c-1.3,0-2.4-0.4-3.1-1.1
		C786,237.8,785.6,236.8,785.5,235.6z M789.4,218.3c0-0.6-0.1-1.2-0.2-1.7c-0.1-0.5-0.4-1.1-0.8-1.5c-0.4-0.5-0.9-0.8-1.5-1.1
		c-0.6-0.3-1.4-0.4-2.4-0.4c-1.3,0-2.6,0.4-3.9,1.3c-1.3,0.9-2.4,2.1-3.4,3.5c-0.9,1.4-1.7,3.1-2.3,5c-0.6,2-0.9,4-0.9,6
		c0,1.1,0.1,2.1,0.2,3c0.1,0.9,0.4,1.6,0.7,2.4c0.3,0.7,0.8,1.2,1.5,1.6c0.7,0.4,1.5,0.6,2.5,0.6c1,0,2.1-0.3,3.2-0.9
		c1.1-0.6,2.4-1.6,3.8-3L789.4,218.3z"></path>
	<path fill="#B56A94" d="M815.4,238.8c-0.4-4.7-0.8-8.5-1.1-11.2c-0.3-2.8-0.9-5.8-1.5-9.2h-0.3c-0.7,4.1-1.7,7.5-2.8,10.2
		c-1.1,2.7-2.3,4.9-3.5,6.6c-1.1,1.6-2.3,2.8-3.4,3.5c-1.1,0.7-2,1.1-2.7,1.1c-1,0-1.7-0.3-2.2-0.8c-0.4-0.6-0.6-1.3-0.6-2.1
		c0-0.7,0.3-1.4,0.8-2.1c0.5-0.7,1.3-1,2.2-1c0.5,0,1,0.1,1.6,0.3c0.6,0.2,1.2,0.5,1.8,0.8c2-2.4,3.6-5.6,4.8-9.5
		c1.2-3.9,1.9-7.5,2.2-10.7h-4.8l0.5-1.9l9-0.5c0.9,3,1.7,6.1,2.4,9.3c0.7,3.2,1.2,6.8,1.5,10.6l12.7-19.6l4.9-0.4l0.3,0.4l-4,17.6
		c-0.1,0.5-0.3,1.2-0.4,2.1c-0.2,0.8-0.2,1.4-0.2,1.8c0,1,0.2,1.7,0.7,2.1c0.5,0.4,1.2,0.6,2.2,0.6c0.3,0,0.8-0.1,1.5-0.2
		c0.6-0.1,1.1-0.2,1.5-0.4l-0.4,1.8c-1.6,0.7-2.9,1.1-3.7,1.4c-0.9,0.3-1.7,0.4-2.7,0.4c-1.5,0-2.5-0.4-3.2-1.1
		c-0.7-0.8-1-1.7-1-2.8c0-0.4,0-0.9,0.1-1.3s0.2-1,0.3-1.8l3.6-15l-0.3-0.1l-14,21.2H815.4z"></path>
	<path fill="#B56A94" d="M381,293.9h-0.2c-0.8,0.7-1.6,1.3-2.4,1.9c-0.8,0.6-1.5,1-2.3,1.4c-0.9,0.4-1.7,0.8-2.4,0.9
		c-0.7,0.2-1.6,0.3-2.8,0.3c-1.8,0-3.1-0.5-4.1-1.5c-1-1-1.4-2.3-1.4-4c0-0.4,0-1,0.1-1.6c0.1-0.6,0.2-1.5,0.5-2.7l2.1-8.7
		c0.2-0.8,0.3-1.5,0.4-2.1c0.1-0.6,0.2-1.2,0.2-1.8c0-1-0.2-1.7-0.5-2c-0.3-0.3-1-0.5-2.1-0.5c-0.4,0-0.9,0.1-1.5,0.2
		c-0.6,0.2-1.1,0.3-1.4,0.4l0.4-1.8c1.4-0.6,2.7-1.1,3.8-1.5c1.1-0.3,2-0.5,2.6-0.5c1.5,0,2.5,0.3,3.2,1c0.7,0.7,1,1.7,1,2.9
		c0,0.3,0,0.8-0.1,1.3c-0.1,0.6-0.2,1.1-0.3,1.7l-2.4,10.1c-0.2,0.8-0.3,1.5-0.4,2.1c-0.1,0.7-0.2,1.2-0.2,1.5
		c0,1.2,0.3,2.2,0.8,2.9c0.5,0.7,1.4,1.1,2.5,1.1c1.2,0,2.4-0.3,3.6-0.9c1.2-0.6,2.5-1.5,3.7-2.8l4.8-20.6l4.8-0.3l0.3,0.4
		l-4.1,17.6c-0.2,0.7-0.3,1.5-0.5,2.3c-0.1,0.8-0.2,1.3-0.2,1.6c0,1,0.2,1.7,0.7,2.1c0.4,0.4,1.2,0.6,2.2,0.6c0.3,0,0.8-0.1,1.5-0.2
		c0.6-0.1,1.1-0.2,1.5-0.4l-0.4,1.7c-1.5,0.6-2.8,1.1-3.8,1.4c-1,0.3-1.9,0.5-2.8,0.5c-1.5,0-2.6-0.4-3.3-1.3
		C381.3,296,381,295,381,293.9z"></path>
	<path fill="#B56A94" d="M424.2,297.3c-0.4-4.7-0.8-8.5-1.1-11.2c-0.3-2.8-0.9-5.8-1.5-9.2h-0.3c-0.7,4.1-1.7,7.5-2.8,10.2
		c-1.1,2.7-2.3,4.9-3.5,6.6c-1.1,1.6-2.3,2.8-3.4,3.5s-2,1.1-2.7,1.1c-1,0-1.7-0.3-2.2-0.8c-0.4-0.6-0.6-1.3-0.6-2.1
		c0-0.7,0.3-1.4,0.8-2.1c0.5-0.7,1.3-1,2.2-1c0.5,0,1,0.1,1.6,0.3c0.6,0.2,1.2,0.5,1.8,0.8c2-2.4,3.6-5.6,4.8-9.5
		c1.2-3.9,1.9-7.5,2.2-10.7h-4.8l0.5-1.9l9-0.5c0.9,3,1.7,6.1,2.4,9.3c0.7,3.2,1.2,6.8,1.5,10.6l12.7-19.6l4.9-0.4l0.3,0.4l-4,17.6
		c-0.1,0.5-0.3,1.2-0.4,2.1c-0.2,0.8-0.2,1.4-0.2,1.8c0,1,0.2,1.7,0.7,2.1c0.5,0.4,1.2,0.6,2.2,0.6c0.3,0,0.8-0.1,1.5-0.2
		c0.6-0.1,1.1-0.2,1.5-0.4l-0.4,1.8c-1.6,0.7-2.9,1.1-3.7,1.4c-0.9,0.3-1.7,0.4-2.7,0.4c-1.5,0-2.5-0.4-3.2-1.1
		c-0.7-0.8-1-1.7-1-2.8c0-0.4,0-0.9,0.1-1.3c0.1-0.4,0.2-1,0.3-1.8l3.6-15L440,276l-14,21.2H424.2z"></path>
	<path fill="#B56A94" d="M467.8,294.1h-0.2c-0.4,0.3-0.9,0.7-1.4,1.2c-0.6,0.5-1.2,1-2,1.4c-0.7,0.5-1.5,0.9-2.3,1.2
		c-0.8,0.3-1.7,0.5-2.7,0.5c-2.6,0-4.7-0.9-6.2-2.8c-1.5-1.9-2.3-4.5-2.3-7.8c0-2.3,0.4-4.5,1.3-6.6c0.8-2.1,2-4.1,3.5-5.7
		c1.4-1.6,3.1-2.9,5-3.9c1.9-1,3.9-1.5,6-1.5c1.3,0,2.5,0.2,3.7,0.5c1.2,0.3,2.1,0.7,2.8,1.2l5-1.3l0.3,0.4l-4.2,17.7
		c-0.1,0.6-0.3,1.3-0.5,2.1c-0.2,0.8-0.2,1.4-0.2,1.8c0,1,0.2,1.7,0.7,2.1s1.2,0.5,2.2,0.5c0.3,0,0.8-0.1,1.5-0.2
		c0.6-0.1,1.1-0.2,1.5-0.4l-0.4,1.7c-1.6,0.7-2.9,1.1-3.7,1.4c-0.8,0.3-1.8,0.4-2.9,0.4c-1.3,0-2.4-0.4-3.1-1.1
		C468.3,296.3,467.9,295.3,467.8,294.1z M471.7,276.8c0-0.6-0.1-1.2-0.2-1.7c-0.1-0.5-0.4-1.1-0.8-1.5c-0.4-0.5-0.9-0.8-1.5-1.1
		c-0.6-0.3-1.4-0.4-2.4-0.4c-1.3,0-2.6,0.4-3.9,1.3c-1.3,0.9-2.4,2.1-3.4,3.5c-0.9,1.4-1.7,3.1-2.3,5c-0.6,2-0.9,4-0.9,6
		c0,1.1,0.1,2.1,0.2,3c0.1,0.9,0.4,1.6,0.7,2.4c0.3,0.7,0.8,1.2,1.5,1.6c0.7,0.4,1.5,0.6,2.5,0.6c1,0,2.1-0.3,3.2-0.9
		c1.1-0.6,2.4-1.6,3.8-3L471.7,276.8z"></path>
	<path fill="#B56A94" d="M510.4,296.3c-1.6,0.7-2.9,1.1-3.8,1.4c-0.9,0.3-1.8,0.4-2.7,0.4c-1.5,0-2.5-0.4-3.3-1.1
		c-0.7-0.8-1.1-1.7-1.1-2.8c0-0.4,0-0.8,0.1-1.3c0.1-0.5,0.2-1.1,0.4-1.7l2.7-10.7c0.4-1.8,0.8-3.1,1-4.2c0.2-1,0.3-1.8,0.3-2.4
		c0-0.3-0.3-0.7-0.9-1c-0.6-0.4-1.3-0.6-2.1-0.6c-1.6,0-3,0.9-4.3,2.7c-1.2,1.8-2.6,4.7-4,8.9c-0.5,1.6-1.2,3.3-1.9,5.1
		c-0.7,1.8-1.5,3.3-2.3,4.6c-0.9,1.4-1.9,2.6-2.8,3.4c-1,0.8-2.1,1.2-3.3,1.2c-0.9,0-1.6-0.3-2.1-0.9c-0.5-0.6-0.8-1.3-0.8-2.1
		c0-0.7,0.3-1.4,0.8-2.1c0.5-0.7,1.3-1,2.2-1c0.5,0,1,0.1,1.5,0.3c0.5,0.2,1.1,0.5,1.7,0.8c0.8-0.8,1.6-2.3,2.5-4.5
		c0.9-2.2,1.5-3.9,1.9-5.1c0.5-1.4,1-3,1.7-4.7c0.7-1.7,1.4-3.2,2.3-4.4c0.9-1.3,2.1-2.4,3.5-3.2c1.4-0.8,3.1-1.2,5.1-1.2
		c2,0,3.6,0.3,4.7,1c1.1,0.7,1.7,1.4,1.7,2.4c0,0.5-0.1,1.3-0.3,2.4c-0.2,1.1-0.4,2.1-0.7,3l-2.6,9.8c-0.2,0.6-0.3,1.3-0.5,2
		c-0.2,0.8-0.2,1.3-0.2,1.8c0,1,0.2,1.7,0.7,2.1c0.5,0.4,1.2,0.6,2.3,0.6c0.3,0,0.8-0.1,1.5-0.2c0.6-0.1,1.1-0.2,1.5-0.4
		L510.4,296.3z"></path>
	<path fill="#B56A94" d="M538,288.1c0,3.1-1.2,5.6-3.7,7.5c-2.5,1.9-5.8,2.9-10,2.9c-2.6,0-4.6-0.5-6-1.6c-1.4-1-2-2.5-2-4.3
		c0-0.4,0-0.9,0.1-1.5c0.1-0.5,0.2-1.4,0.5-2.5l2.4-8.8c0.2-0.7,0.4-1.5,0.5-2.2c0.2-0.8,0.2-1.4,0.2-1.8c0-1-0.2-1.6-0.5-1.9
		c-0.4-0.3-1.1-0.5-2.1-0.5c-0.4,0-0.9,0.1-1.6,0.2c-0.7,0.1-1.2,0.2-1.5,0.3l0.4-1.7c1.4-0.6,2.7-1.1,3.9-1.4
		c1.1-0.3,2-0.5,2.7-0.5c1.5,0,2.6,0.4,3.2,1.1c0.6,0.7,0.9,1.7,0.9,2.9c0,0.4,0,0.8-0.1,1.4c-0.1,0.5-0.2,1.1-0.4,1.7l-1.3,4.7
		c0.5-0.1,1.3-0.2,2.2-0.3c1-0.1,1.8-0.2,2.5-0.2c3.1,0,5.5,0.6,7.2,1.7C537.1,284.3,538,285.9,538,288.1z M532.4,288.3
		c0-1.6-0.4-2.9-1.3-3.7c-0.9-0.9-2.1-1.3-3.6-1.3c-0.8,0-1.6,0.1-2.5,0.3c-0.9,0.2-1.5,0.3-1.8,0.4l-1.1,4.3
		c-0.2,0.6-0.3,1.3-0.5,2.2c-0.1,0.9-0.2,1.6-0.2,2.1c0,1.4,0.4,2.4,1.2,3.1c0.8,0.6,1.7,1,2.8,1c1.4,0,2.6-0.3,3.5-0.9
		c0.9-0.6,1.7-1.3,2.2-2.1c0.5-0.8,0.9-1.7,1.1-2.6C532.2,290.1,532.4,289.2,532.4,288.3z M552.3,294.5l-0.4,1.8
		c-1.6,0.7-2.9,1.1-3.8,1.4c-0.9,0.3-1.8,0.4-2.7,0.4c-1.5,0-2.5-0.4-3.3-1.1c-0.7-0.8-1.1-1.7-1.1-2.8c0-0.4,0-0.9,0.1-1.3
		c0.1-0.4,0.2-1,0.3-1.8l4.5-20.3l4.8-0.3l0.3,0.5l-4,17.6c-0.1,0.5-0.3,1.2-0.4,2.1c-0.2,0.8-0.2,1.4-0.2,1.8c0,1,0.2,1.7,0.7,2.1
		c0.5,0.4,1.2,0.6,2.3,0.6c0.3,0,0.8-0.1,1.5-0.2C551.5,294.8,552,294.7,552.3,294.5z"></path>
	<path fill="#B56A94" d="M573.3,293.5L573.3,293.5c-0.8,0.6-1.6,1.3-2.5,2c-0.9,0.7-1.7,1.2-2.4,1.6c-0.9,0.5-1.8,0.8-2.5,1.1
		c-0.7,0.2-1.7,0.3-2.8,0.3c-1.8,0-3.1-0.5-4.1-1.5c-0.9-1-1.4-2.3-1.4-4c0-0.4,0-1,0.1-1.6c0.1-0.6,0.2-1.5,0.5-2.7l2.1-8.7
		c0.2-0.8,0.3-1.5,0.5-2.1c0.1-0.6,0.2-1.2,0.2-1.8c0-1-0.2-1.7-0.5-2c-0.3-0.3-1-0.5-2.1-0.5c-0.4,0-0.9,0.1-1.5,0.2
		c-0.6,0.2-1.1,0.3-1.4,0.4l0.4-1.8c1.4-0.6,2.7-1.1,3.8-1.5c1.1-0.3,2-0.5,2.6-0.5c1.5,0,2.5,0.3,3.2,1c0.7,0.7,1,1.7,1,2.9
		c0,0.3,0,0.8-0.1,1.3c-0.1,0.6-0.2,1.1-0.3,1.7l-2.4,10.1c-0.2,0.8-0.3,1.5-0.4,2.1c-0.1,0.7-0.2,1.2-0.2,1.5
		c0,1.2,0.3,2.2,0.8,2.9c0.5,0.7,1.4,1.1,2.5,1.1c0.9,0,1.9-0.2,3-0.8c1.1-0.5,2.4-1.5,4-2.9l4.8-20.6l4.8-0.3l0.3,0.4l-3.8,16.6
		c-0.1,0.6-0.3,1.3-0.4,2.1c-0.1,0.8-0.2,1.3-0.2,1.7c0,1.2,0.3,2.2,0.8,2.9c0.5,0.7,1.4,1,2.5,1c0.9,0,2-0.3,3.2-0.9
		c1.2-0.6,2.6-1.6,4.1-3.1l4.7-20.3l4.8-0.3l0.3,0.4l-4.1,17.6c-0.2,0.7-0.3,1.5-0.5,2.3c-0.1,0.8-0.2,1.3-0.2,1.6
		c0,1,0.2,1.7,0.7,2.1c0.4,0.4,1.2,0.6,2.2,0.6c0.3,0,0.8-0.1,1.5-0.2c0.6-0.1,1.1-0.2,1.5-0.4l-0.4,1.7c-1.5,0.6-2.8,1.1-3.8,1.4
		c-1,0.3-1.9,0.5-2.8,0.5c-1.5,0-2.6-0.4-3.3-1.3c-0.7-0.8-1.1-1.9-1.1-3.2h-0.2c-0.8,0.7-1.5,1.3-2.3,1.9s-1.5,1.1-2.3,1.5
		c-0.9,0.5-1.7,0.8-2.6,1c-0.8,0.2-1.7,0.3-2.6,0.3c-1.7,0-3-0.4-4-1.3S573.4,295,573.3,293.5z"></path>
	<path fill="#B56A94" d="M627,275.8c0,1.9-0.6,3.6-1.8,5c-1.2,1.4-3,2.5-5.3,3.3c-1.7,0.6-3.4,1.1-5.1,1.5c-1.7,0.4-3.6,0.7-5.7,1
		c0,2.9,0.5,5.1,1.6,6.6c1.1,1.5,2.6,2.3,4.7,2.3c1.8,0,3.4-0.5,4.8-1.4c1.4-0.9,2.8-2.3,4.1-4.1l1.6,1.1c-1.5,2.2-3.3,4-5.5,5.3
		c-2.2,1.3-4.5,2-6.8,2c-3.2,0-5.7-0.9-7.4-2.7c-1.7-1.8-2.6-4.4-2.6-7.7c0-2.3,0.4-4.5,1.1-6.6c0.7-2.1,1.8-4,3.2-5.7
		c1.3-1.7,3-3.1,5-4.1c2-1,4.1-1.6,6.5-1.6c2.6,0,4.6,0.5,5.8,1.6C626.4,272.8,627,274.1,627,275.8z M622,275.1
		c0-0.7-0.1-1.3-0.3-1.7c-0.2-0.4-0.5-0.7-0.8-0.9c-0.3-0.2-0.7-0.4-1-0.4c-0.4-0.1-0.7-0.1-1.1-0.1c-2.2,0-4.2,1.2-6.1,3.6
		c-1.9,2.4-3,5.4-3.5,9c1.3-0.2,2.7-0.4,4.3-0.8c1.6-0.3,2.9-0.8,4-1.3c1.5-0.8,2.6-1.8,3.4-3C621.6,278.3,622,276.8,622,275.1z"></path>
	<path fill="#B56A94" d="M647.5,293.9h-0.2c-0.8,0.7-1.6,1.3-2.4,1.9c-0.8,0.6-1.5,1-2.3,1.4c-0.9,0.4-1.7,0.8-2.4,0.9
		c-0.7,0.2-1.6,0.3-2.8,0.3c-1.7,0-3.1-0.5-4.1-1.5c-1-1-1.4-2.3-1.4-4c0-0.4,0-1,0.1-1.6c0.1-0.6,0.2-1.5,0.5-2.7l2.1-8.7
		c0.2-0.8,0.3-1.5,0.4-2.1c0.1-0.6,0.2-1.2,0.2-1.8c0-1-0.2-1.7-0.5-2c-0.3-0.3-1-0.5-2.1-0.5c-0.4,0-0.9,0.1-1.5,0.2
		c-0.6,0.2-1.1,0.3-1.4,0.4l0.4-1.8c1.4-0.6,2.7-1.1,3.8-1.5c1.1-0.3,2-0.5,2.6-0.5c1.5,0,2.5,0.3,3.2,1c0.7,0.7,1,1.7,1,2.9
		c0,0.3,0,0.8-0.1,1.3c-0.1,0.6-0.2,1.1-0.3,1.7l-2.4,10.1c-0.2,0.8-0.3,1.5-0.4,2.1c-0.1,0.7-0.2,1.2-0.2,1.5
		c0,1.2,0.3,2.2,0.8,2.9c0.5,0.7,1.4,1.1,2.5,1.1c1.2,0,2.4-0.3,3.6-0.9c1.2-0.6,2.5-1.5,3.7-2.8l4.8-20.6l4.8-0.3l0.3,0.4
		l-4.1,17.6c-0.2,0.7-0.3,1.5-0.5,2.3c-0.1,0.8-0.2,1.3-0.2,1.6c0,1,0.2,1.7,0.7,2.1c0.4,0.4,1.2,0.6,2.2,0.6c0.3,0,0.8-0.1,1.5-0.2
		c0.6-0.1,1.1-0.2,1.5-0.4l-0.4,1.7c-1.5,0.6-2.8,1.1-3.8,1.4c-1,0.3-1.9,0.5-2.8,0.5c-1.5,0-2.6-0.4-3.3-1.3
		C647.8,296,647.5,295,647.5,293.9z M651.7,261.2c0.7-0.8,1.3-1.6,1.8-2.5c0.5-0.9,0.9-1.9,1.2-3l1.7,0.9c-0.3,1.3-0.8,2.5-1.5,3.7
		c-0.6,1.2-1.4,2.2-2.4,3.1c-1,0.9-2.1,1.6-3.2,2.1c-1.1,0.5-2.5,0.8-4.2,0.8c-2.1,0-3.7-0.5-4.9-1.4c-1.1-0.9-1.7-2.1-1.7-3.5
		c0-1.1,0.3-2,1-2.6c0.6-0.6,1.4-0.9,2.3-0.9c0.6,0,1.2,0.2,1.6,0.6c0.4,0.4,0.6,0.9,0.6,1.6c0,0.6-0.1,1.2-0.4,1.8
		c-0.2,0.5-0.5,1-0.7,1.4c0.4,0.2,0.9,0.4,1.3,0.5c0.4,0.1,0.9,0.1,1.4,0.1c1.2,0,2.3-0.2,3.3-0.7C650.1,262.6,651,262,651.7,261.2z
		"></path>
</g>
</svg>