<?xml version="1.0" encoding="utf-8"?>
<!-- Generator: Adobe Illustrator 19.2.0, SVG Export Plug-In . SVG Version: 6.00 Build 0)  -->
<svg version="1.1" id="Forma_1_копия_2_1_" xmlns="http://www.w3.org/2000/svg" xmlns:xlink="http://www.w3.org/1999/xlink"
	 x="0px" y="0px" viewBox="0 0 18 13" enable-background="new 0 0 18 13" xml:space="preserve">
<g id="Forma_1_копия_2">
	<g>
		<path fill-rule="evenodd" clip-rule="evenodd" fill="#B56A94" d="M17.8,1.1l-1-0.9c-0.3-0.3-0.7-0.3-1,0h-0.1l-9.3,9
			C6.4,9.4,6.2,9.4,6,9.2L2.2,5.4L2.1,5.3c-0.3-0.3-0.7-0.3-1,0l-1,0.9C0.1,6.4,0,6.6,0,6.7C0,6.8,0.1,7,0.2,7.1l0.1,0.2l5.4,5.5
			C5.9,12.9,6,13,6.2,13s0.3-0.1,0.5-0.2L17.8,2C18.1,1.7,18.1,1.3,17.8,1.1z"/>
	</g>
</g>
</svg>
