<?xml version="1.0" encoding="utf-8"?>
<!-- Generator: Adobe Illustrator 19.2.0, SVG Export Plug-In . SVG Version: 6.00 Build 0)  -->
<svg version="1.1" id="Forma_1_1_" xmlns="http://www.w3.org/2000/svg" xmlns:xlink="http://www.w3.org/1999/xlink" x="0px" y="0px"
	 viewBox="0 0 50 50" enable-background="new 0 0 50 50" xml:space="preserve">
<g id="Forma_1">
	<g>
		<path fill-rule="evenodd" clip-rule="evenodd" fill="#B56A94" d="M49.9,9.7L49.9,9.7L25,0L0.1,9.7L0,9.6v0.1l0,0l0,0v30.7L25,50
			l25-9.6L49.9,9.7L49.9,9.7z M25,1.9l8.5,3l-23.1,8.8l-7.8-3L25,1.9z M24.1,47.8l-9.4-3.7L10,42.4l-8.3-3.2v-27l8.2,3.2v6.7
			l0.7-0.2l0.5,0.7l0.7-0.2l0.7,0.7l0.6-0.2l0.9,0.9V17l0.7,0.3l9.3,3.6V47.8z M15.9,15.8l22.5-8.9l9.3,3.7L25,19.3L15.9,15.8z
			 M25.9,47.8v-27l22.3-8.6v27l0,0L25.9,47.8z"/>
	</g>
</g>
</svg>
