<?xml version="1.0" encoding="utf-8"?>
<!-- Generator: Adobe Illustrator 19.2.0, SVG Export Plug-In . SVG Version: 6.00 Build 0)  -->
<svg version="1.1" id="Forma_1_1_" xmlns="http://www.w3.org/2000/svg" xmlns:xlink="http://www.w3.org/1999/xlink" x="0px" y="0px"
	 viewBox="0 0 61 47" enable-background="new 0 0 61 47" xml:space="preserve">
<g id="Forma_1">
	<g>
		<path fill-rule="evenodd" clip-rule="evenodd" fill="#F3F3F3" d="M47.5,37.1c-2.7,0-4.9,2.2-4.9,5c0,2.7,2.2,5,4.9,5
			c2.7,0,4.9-2.2,4.9-5C52.4,39.3,50.2,37.1,47.5,37.1z M47.5,44.5c-1.3,0-2.4-1.1-2.4-2.5c0-1.4,1.1-2.5,2.4-2.5
			c1.3,0,2.4,1.1,2.4,2.5C49.9,43.4,48.8,44.5,47.5,44.5z M23.7,12c0-6.7-5.3-12-11.9-12C5.3,0,0,5.4,0,12c0,6.7,5.3,12,11.9,12
			C18.4,24.1,23.7,18.7,23.7,12z M2.7,12c0-5.1,4.1-9.3,9.2-9.3c5.1,0,9.2,4.2,9.2,9.3c0,5.1-4.1,9.3-9.2,9.3
			C6.8,21.3,2.7,17.2,2.7,12z M11.9,25.7c-1.3,0-2.7-0.2-3.9-0.6v8.8c0,0.4,0.4,0.8,0.8,0.8h26.5c0.4,0,0.8-0.4,0.8-0.8V10.2
			c0-1.3-1.1-2.4-2.4-2.4h-9.1c0.4,1.3,0.7,2.8,0.7,4.3C25.3,19.6,19.3,25.7,11.9,25.7z M15.4,14c0.5,0,1-0.4,1.1-0.9
			c0.2-0.6-0.2-1.3-0.8-1.5l-3-0.8V5.8c0-0.7-0.5-1.2-1.2-1.2c-0.6,0-1.2,0.5-1.2,1.2v6c0,0.5,0.4,1,0.9,1.2l3.8,1
			C15.2,14,15.3,14,15.4,14z M22,37.1c-2.7,0-4.9,2.2-4.9,5c0,2.7,2.2,5,4.9,5c2.7,0,4.9-2.2,4.9-5C26.8,39.3,24.7,37.1,22,37.1z
			 M22,44.5c-1.3,0-2.4-1.1-2.4-2.5c0-1.4,1.1-2.5,2.4-2.5c1.3,0,2.4,1.1,2.4,2.5C24.4,43.4,23.3,44.5,22,44.5z M60.2,37.1h-1.9
			V26.3c0-1.3-0.4-2.5-1.1-3.6l-4.8-7.2c-1.2-1.8-3.1-2.8-5.2-2.8h-7.4c-0.9,0-1.6,0.7-1.6,1.6v22.8H26.2c1.2,1,1.9,2.4,2.2,4h12.8
			c0.5-3.2,3.1-5.6,6.4-5.6c3.2,0,5.9,2.4,6.4,5.6h6.4c0.4,0,0.8-0.4,0.8-0.8v-2.4C61,37.4,60.6,37.1,60.2,37.1z M52.4,24.1h-9.8
			c-0.4,0-0.8-0.4-0.8-0.8v-5.5c0-0.4,0.4-0.8,0.8-0.8h6c0.3,0,0.5,0.1,0.6,0.3l3.8,5.5C53.4,23.4,53,24.1,52.4,24.1z M6.8,37.1
			L6.8,37.1c-0.4,0-0.8,0.4-0.8,0.8v2.4c0,0.4,0.4,0.8,0.8,0.8h8.8c0.2-1.6,1-3,2.2-4H6.8z"/>
	</g>
</g>
</svg>
