<?xml version="1.0" encoding="utf-8"?>
<!-- Generator: Adobe Illustrator 19.2.0, SVG Export Plug-In . SVG Version: 6.00 Build 0)  -->
<svg version="1.1" id="Forma_1_1_" xmlns="http://www.w3.org/2000/svg" xmlns:xlink="http://www.w3.org/1999/xlink" x="0px" y="0px"
	 viewBox="0 0 35 33" enable-background="new 0 0 35 33" xml:space="preserve">
<g id="Forma_1">
	<g>
		<path fill-rule="evenodd" clip-rule="evenodd" fill="#B56A94" d="M17.6,0C8.3,0,0.7,7.4,0.7,16.5C0.7,25.6,8.3,33,17.6,33
			s16.9-7.4,16.9-16.5C34.5,7.4,26.9,0,17.6,0z M21.8,17.1h-2.7c0,4.3,0,9.6,0,9.6H15c0,0,0-5.2,0-9.6h-1.9v-3.4H15v-2.2
			c0-1.6,0.8-4,4.1-4l3,0v3.3c0,0-1.8,0-2.2,0c-0.4,0-0.9,0.2-0.9,0.9v2h3.1L21.8,17.1z"/>
	</g>
</g>
</svg>
