<?xml version="1.0" encoding="utf-8"?>
<!-- Generator: Adobe Illustrator 19.2.0, SVG Export Plug-In . SVG Version: 6.00 Build 0)  -->
<svg version="1.1" id="Forma_1_1_" xmlns="http://www.w3.org/2000/svg" xmlns:xlink="http://www.w3.org/1999/xlink" x="0px" y="0px"
	 viewBox="0 0 50 55" enable-background="new 0 0 50 55" xml:space="preserve">
<g id="Forma_1">
	<g>
		<path fill-rule="evenodd" clip-rule="evenodd" fill="#BA739B" d="M49.8,14.1c-0.2-1.4-0.1-3-0.5-4.3c-0.2-0.8-0.8-1.1-1.5-1.3
			c-1.3-0.3-2.7-0.5-4-0.8c-2.6-0.6-5.2-1.3-7.7-2c-2.8-0.8-5.5-1.9-8.3-2.8c-2-0.6-4.2-0.8-6,0.4c-0.3-2-1.4-3.6-4-3.2
			c-2.9,0.5-6,2.2-7.9,4.4c-1.2,1.3-2.4,3.8-1.9,5.6c-2.1,0.9-4.3,1.7-6.2,2.8c-1.9,1-1.7,2.9-1.5,4.9c0.1,1,0.3,2.1,0.7,3.1
			c0.2,0.6,0.6,0.9,1,1.2c0.5,5.5,1,11,1.6,16.5c0.1,1.3,0.3,2.7,0.4,4C4.1,43.6,4,45,4.6,46c0.5,0.8,1.3,1.1,2.2,1.4
			c1.4,0.5,2.8,1,4.1,1.5c0.3,0.1,0.5,0,0.6-0.1c0.1,0.2,0.2,0.4,0.4,0.5c0.8,0.7,2,1.1,3,1.5c0.9,0.4,2.5,1.3,3.5,0.6
			c0,0,0.1-0.1,0.1-0.1c1.7,0.7,3.3,1.3,5.1,1.8c1.8,0.6,3.6,1.5,5.5,1.7c1.7,0.2,3.2-0.9,4.6-1.8c1.6-1,3.1-2,4.7-3.1
			c3.1-2.2,6.2-4.5,8.9-7.1c1.3-1.2,1.2-2.8,1.2-4.5c0.1-2.1,0.2-4.2,0.2-6.3c0.1-4.7,0.1-9.3,0-14c0.4-0.3,0.8-0.7,1-1.2
			C50.2,16.1,49.9,15,49.8,14.1z M37.1,7.8c3.1,0.9,6.2,1.6,9.3,2.3c-3.1,2.4-6.3,4.6-9.5,6.9c-1.7,1.2-3.4,2.4-5.1,3.5
			c-1.1,0.7-1.9,0.9-3.1,0.5c-1-0.3-2.1-0.6-3.1-1c-2.1-0.7-4.2-1.3-6.2-1.9c0.3-0.2,0.6-0.4,0.9-0.5c0.6-0.4,1.2-0.8,1.8-1.1
			c0.1,0.3,0.3,0.5,0.4,0.8c0.8,1.1,2.1,1.5,3.4,1.4c3.2-0.4,6.5-2.9,8.7-5.3C35.6,12.2,37.4,9.7,37.1,7.8z M21.7,15.2
			c-1.1,0.6-2.2,1.3-3.2,1.9c-0.3,0.2-0.5,0.3-0.8,0.5c-1.8-0.5-3.6-1-5.4-1.5c0.2-0.2,0.4-0.3,0.7-0.4c0.7-0.4,1.5-0.8,2.2-1.2
			c1.2-0.7,2.5-1.5,3.7-2.2c0.7,0.6,1.9,0.8,2.8,0.8C21.6,13.8,21.6,14.5,21.7,15.2z M34.1,7.3c0.6,0.1,1.1,0.2,1.2,0.8
			c0.1,0.5-0.2,1.1-0.4,1.6c-0.5,1.1-1.2,2.1-2.1,3c-1.5,1.5-3.5,3-5.5,3.9c-1.2,0.5-2.7,0.9-3.7-0.1c-0.9-0.9-0.9-2.3-0.8-3.5
			c1-0.3,2-0.8,2.7-1.7c0.1,0.7,0.2,1.4,0.3,2.1c0.1,0.7,1.1,0.4,1-0.2c-0.1-0.8-0.2-1.5-0.3-2.3c0.9-0.1,1.8,0,2.6,0.2
			c0.6,0.2,0.9-0.7,0.3-0.9c-0.9-0.3-1.8-0.3-2.7-0.3c-0.1,0-0.2,0-0.3,0c0.1-0.3,0.3-0.6,0.3-0.9c0.1,0,0.1,0,0.2-0.1
			C29.2,7.9,31.7,6.9,34.1,7.3z M30.9,5.8c-1.5,0.3-3,0.8-4.3,1.6c0-0.1-0.1-0.1-0.1-0.2c0-0.1-0.1-0.2-0.2-0.2
			c1.2-0.5,2.3-1,3.4-1.6C30.2,5.6,30.6,5.7,30.9,5.8z M22.3,4.8c1.7-1.4,4.1-0.6,5.9,0.1c0.1,0,0.1,0,0.2,0.1
			c-0.9,0.5-1.8,1-2.7,1.5c-0.9-0.6-2.1-0.9-3-0.9c-0.3,0-0.5,0.1-0.8,0.2c0-0.2,0-0.5,0-0.7C22,4.9,22.1,4.9,22.3,4.8z M25.3,8.2
			C25.3,8.2,25.4,8.2,25.3,8.2c0.3,1.3-1.9,2.9-3,3.2c-0.9,0.2-2.4,0.4-2.7-0.8c-0.1-0.7,0.4-1.8,0.8-2.3
			C21.6,6.8,24.2,6.4,25.3,8.2z M11.1,5.4c1.4-1.6,3.4-2.6,5.4-3.3c1.1-0.4,2.7-1,3.5,0.2c0.7,1,1,2.6,1.1,3.8
			c-0.2,0.1-0.4,0.3-0.5,0.4c-0.1,0.1-0.2,0.1-0.3,0.2c-0.2-0.5-0.5-1.1-0.8-1.6C19,4.6,18.3,5,18.5,5.6c0.2,0.5,0.4,1.1,0.6,1.7
			c-0.6,0-1.2,0.1-1.8,0.2c-0.8,0.1-0.5,1.3,0.3,1.2c0.4-0.1,0.9-0.1,1.3-0.2c-0.3,0.6-0.6,1.4-0.6,2.1c-2.4,0.6-4.7,1-7.1,0.4
			C8.1,10.1,9.6,6.9,11.1,5.4z M1.9,17.8c-0.1-0.8-0.4-1.8-0.2-2.6c2.9,0.4,5.8,1,8.7,1.7c0,0.3,0,0.6,0,0.9c0,1.6,0,3.3,0.1,4.9
			c-1.7-0.4-3.4-0.8-5-1.3c-0.7-0.2-2.2-0.4-2.7-0.9C2.1,20,2,18.6,1.9,17.8z M7.9,46.3c-0.5-0.2-1.2-0.3-1.6-0.7
			c-0.6-0.5-0.5-1.2-0.6-1.8c-0.3-2.5-0.6-5-1-7.5c-0.6-4.6-1.3-9.3-2-13.9c2.5,0.7,5,1.4,7.5,1.9c0.1,0,0.1,0,0.2,0
			c0.1,5.8,0.3,11.6,0.5,17.4c0.1,1.6,0.1,3.1,0.2,4.7c0,0.4,0,0.7,0,1.1C10.1,47.1,9,46.7,7.9,46.3z M11.1,15.2
			c-0.2,0.2-0.3,0.4-0.5,0.6c-2.7-0.6-5.5-1.2-8.3-1.5c0.5-0.3,1.1-0.6,1.5-0.8c1.5-0.8,3-1.7,4.5-2.5c0.2,0.3,0.5,0.5,0.8,0.7
			c1.2,0.8,3.1,1,4.5,1.1c0.7,0,1.5,0,2.3-0.1c-0.4,0.2-0.8,0.4-1.2,0.6C13.6,13.8,12.1,14.4,11.1,15.2z M17.7,49.7
			c0,0.3,0.1,0.4-0.2,0.6c-0.2,0.1-1-0.4-1.2-0.4c-1-0.4-2.7-0.8-3.3-1.7c-0.4-0.6-0.3-1.5-0.3-2.1c0-0.8-0.1-1.6-0.1-2.3
			C12.2,38,12,32.4,11.9,26.8c-0.1-3.1-0.3-6.3-0.1-9.4c0,0,0-0.1,0-0.1c1.7,0.4,3.3,0.9,5,1.4c-0.1,0.1-0.1,0.3-0.2,0.4
			c-0.3,1.1-0.1,2.3,0,3.4c0.1,1.5,0.1,3,0.2,4.4c0.3,5.6,0.5,11.2,0.8,16.8c0.1,1.3,0.1,2.6,0.1,3.9C17.7,48.3,17.7,49,17.7,49.7z
			 M29.3,53.3c-0.2,0-0.4,0-0.7-0.1c-1.2-0.3-2.3-0.7-3.5-1c-2.1-0.6-4.1-1.2-6.2-1.7c0.1-0.4,0.1-0.9,0.1-1.3c0-1.6,0-3.2-0.1-4.8
			c-0.1-3.1-0.3-6.2-0.4-9.3c-0.1-3.1-0.3-6.2-0.4-9.3c2.2,1,4.5,1.9,6.9,2.7c1.4,0.5,3.2,1.4,4.9,1.6
			C29.9,37.9,29.8,45.6,29.3,53.3z M29.7,28.4c-0.4-0.1-0.8-0.2-1.1-0.3c-1.2-0.4-2.4-0.7-3.5-1.1c-2.3-0.8-4.6-1.6-7-2.3
			c0,0,0-0.1,0-0.1L18,21.8c0-0.7-0.2-1.5-0.1-2.2c0-0.2,0.1-0.4,0.3-0.6c3.1,0.9,6.2,1.9,9.2,2.8c0.9,0.3,1.7,0.5,2.5,0.5
			C29.8,24.4,29.7,26.4,29.7,28.4z M47,32.3c-0.1,2.5-0.2,5-0.3,7.5c0,0.4,0,0.9-0.1,1.2c-0.2,0.6-0.8,1-1.3,1.4
			c-0.9,0.8-1.7,1.5-2.6,2.3c-3.5,2.9-7.2,5.5-11.1,7.8c-0.3,0.2-0.6,0.4-0.9,0.5c0.7-7.6,0.8-15.3,0-22.8c0,0,0.1,0,0.1-0.1
			c0.3,0,0.5-0.1,0.8-0.2c4.7-1.7,8.8-5.5,12.7-8.5c0.9-0.7,1.9-1.4,2.8-2.1C47.2,23.7,47.1,28,47,32.3z M48.3,16.1
			c-0.2,0.8-1.8,1.7-2.4,2.2c-0.9,0.7-1.9,1.4-2.8,2.2c-3.4,2.6-6.8,5.4-10.7,7.3c-0.4,0.2-0.8,0.4-1.2,0.6c0-2-0.2-4-0.2-6
			c0.4-0.1,0.8-0.3,1.2-0.5c1.8-1.1,3.6-2.4,5.3-3.6c3.5-2.4,6.9-4.9,10.2-7.5c0,0.1,0,0.2,0,0.3c0.1,0.5,0.2,1.1,0.2,1.6
			c0.1,0.5,0.2,1.1,0.2,1.6C48.2,14.7,48.4,15.5,48.3,16.1z"/>
	</g>
</g>
</svg>
