<?xml version="1.0" encoding="utf-8"?>
<!-- Generator: Adobe Illustrator 19.2.0, SVG Export Plug-In . SVG Version: 6.00 Build 0)  -->
<svg version="1.1" id="Forma_1_1_" xmlns="http://www.w3.org/2000/svg" xmlns:xlink="http://www.w3.org/1999/xlink" x="0px" y="0px"
	 viewBox="0 0 34 33" enable-background="new 0 0 34 33" xml:space="preserve">
<g id="Forma_1">
	<g>
		<path fill="#B56A94" d="M16.9,19.8c1.9,0,3.4-1.5,3.4-3.3c0-0.7-0.2-1.4-0.6-1.9c-0.6-0.8-1.6-1.4-2.7-1.4c-1.1,0-2.1,0.5-2.7,1.4
			c-0.4,0.5-0.6,1.2-0.6,1.9C13.5,18.3,15,19.8,16.9,19.8z M24.3,12.5V9.3l-0.4,0l-2.8,0l0,3.2L24.3,12.5z M16.9,0
			C7.6,0,0,7.4,0,16.5C0,25.6,7.6,33,16.9,33c9.3,0,16.9-7.4,16.9-16.5C33.8,7.4,26.2,0,16.9,0z M26.5,22.3c0,2-1.7,3.6-3.7,3.6H11
			c-2,0-3.7-1.6-3.7-3.6V10.7c0-2,1.7-3.6,3.7-3.6h11.8c2,0,3.7,1.6,3.7,3.6V22.3z M22.1,16.5c0,2.8-2.4,5.1-5.2,5.1
			c-2.9,0-5.2-2.3-5.2-5.1c0-0.7,0.1-1.3,0.4-1.9H9.2v7.7c0,1,0.8,1.8,1.8,1.8h11.8c1,0,1.8-0.8,1.8-1.8v-7.7h-2.9
			C22,15.2,22.1,15.8,22.1,16.5z"/>
	</g>
</g>
</svg>
