<?xml version="1.0" encoding="utf-8"?>
<!-- Generator: Adobe Illustrator 19.2.0, SVG Export Plug-In . SVG Version: 6.00 Build 0)  -->
<svg version="1.1" id="Forma_1_1_" xmlns="http://www.w3.org/2000/svg" xmlns:xlink="http://www.w3.org/1999/xlink" x="0px" y="0px"
	 viewBox="0 0 44 40" enable-background="new 0 0 44 40" xml:space="preserve">
<g id="Forma_1">
	<g>
		<path fill="#F3F3F3" d="M43.8,23.5l-4.4-11.1v3.9l0.2,0.5l-0.2,0.1v6.9l2.5-1.1l0.6,1.4c0.2,0.6,0,1.3-0.6,1.6L11.3,38.4
			c-0.6,0.2-1.3-0.1-1.5-0.7l-0.6-1.4l23.4-9.8H16.2l-9.3,3.9l-1.5-3.9H3.8l4.7,11.7c0.4,1,1.4,1.7,2.4,1.7c0.3,0,0.7-0.1,1-0.2
			L42.4,27C43.7,26.5,44.4,24.9,43.8,23.5z M31,16.2v-0.9l-0.5,0.9H31z M12.4,16.2v-0.9l-0.5,0.9H12.4z M15.7,16.7
			c0.1,0,0.2,0,0.2-0.1c0.1-0.1,0.1-0.2,0.1-0.3c0-0.1,0-0.2-0.1-0.3c-0.1-0.1-0.1-0.1-0.2-0.1c-0.1,0-0.1,0-0.2,0.1
			c-0.1,0.1-0.1,0.2-0.1,0.3c0,0.1,0,0.2,0.1,0.3C15.5,16.6,15.6,16.7,15.7,16.7z M6.3,21.5L6.3,21.5c-0.2,0-0.2,0-0.3,0.1
			C6,21.6,6,21.6,6,21.7c0,0.1,0,0.1,0.1,0.1c0,0,0.1,0,0.1,0c0.1,0,0.2,0,0.2-0.1c0.1,0,0.1-0.1,0.1-0.3v-0.1
			C6.5,21.4,6.5,21.4,6.3,21.5C6.4,21.5,6.4,21.5,6.3,21.5z M21,16.6c0.1-0.1,0.1-0.1,0.1-0.3c0-0.1,0-0.2-0.1-0.3
			C20.9,16,20.9,16,20.8,16c-0.1,0-0.2,0-0.2,0.1c-0.1,0.1-0.1,0.1-0.1,0.3c0,0.1,0,0.2,0.1,0.3c0.1,0.1,0.1,0.1,0.2,0.1
			S20.9,16.6,21,16.6z M10.2,20.9c-0.1,0-0.2,0-0.2,0.1c-0.1,0.1-0.1,0.1-0.1,0.2h0.6c0-0.1,0-0.2-0.1-0.2
			C10.3,21,10.2,20.9,10.2,20.9z M22.4,15.1c-0.1,0-0.1,0-0.2,0.1c-0.1,0.1-0.1,0.2-0.1,0.3c0,0.1,0,0.2,0.1,0.3
			c0.1,0.1,0.1,0.1,0.2,0.1c0.1,0,0.1,0,0.2-0.1c0.1-0.1,0.1-0.2,0.1-0.3c0-0.1,0-0.2-0.1-0.3C22.6,15.1,22.5,15.1,22.4,15.1z
			 M20.8,15.7c0.1,0,0.2,0,0.2-0.1c0-0.1,0.1-0.1,0.1-0.2c0-0.1,0-0.2-0.1-0.2c0,0-0.1-0.1-0.2-0.1c-0.1,0-0.2,0-0.2,0.1
			c0,0-0.1,0.1-0.1,0.2c0,0.1,0,0.1,0.1,0.2C20.6,15.6,20.7,15.7,20.8,15.7z M14.8,21.5L14.8,21.5c-0.2,0-0.2,0-0.3,0.1
			c-0.1,0-0.1,0.1-0.1,0.2c0,0.1,0,0.1,0.1,0.1c0,0,0.1,0,0.1,0c0.1,0,0.2,0,0.2-0.1c0.1,0,0.1-0.1,0.1-0.3v-0.1
			C14.9,21.4,14.9,21.4,14.8,21.5C14.8,21.5,14.8,21.5,14.8,21.5z M21,21.5L21,21.5c-0.2,0-0.2,0-0.3,0.1c-0.1,0-0.1,0.1-0.1,0.2
			c0,0.1,0,0.1,0.1,0.1c0,0,0.1,0,0.1,0c0.1,0,0.2,0,0.2-0.1c0.1,0,0.1-0.1,0.1-0.3v-0.1C21.1,21.4,21.1,21.4,21,21.5
			C21,21.5,21,21.5,21,21.5z M24.8,20.9c-0.1,0-0.2,0-0.2,0.1c-0.1,0.1-0.1,0.1-0.1,0.2h0.6c0-0.1,0-0.2-0.1-0.2
			C24.9,21,24.9,20.9,24.8,20.9z M34.2,15.9c-0.1,0-0.1,0-0.2,0.1c-0.1,0.1-0.1,0.2-0.1,0.3c0,0.1,0,0.2,0.1,0.3
			c0.1,0.1,0.1,0.1,0.2,0.1c0.1,0,0.2,0,0.2-0.1c0.1-0.1,0.1-0.2,0.1-0.3c0-0.1,0-0.2-0.1-0.3C34.4,15.9,34.3,15.9,34.2,15.9z
			 M4.2,16.5c0-0.1,0-0.3,0.1-0.5c0,0,0-0.1,0-0.1c0-0.3,0-0.5-0.1-0.6c0-0.1-0.1-0.2-0.2-0.2c-0.1,0-0.2,0.1-0.2,0.2
			c0,0.1-0.1,0.3-0.1,0.6c0,0.1,0,0.2,0,0.3c0,0.1,0,0.2,0,0.2c0,0.1,0.1,0.2,0.2,0.2C4,16.7,4.1,16.6,4.2,16.5z M37.7,24.5
			c0.5-0.5,0.8-1.2,0.8-1.9V2.7c0-0.8-0.3-1.4-0.8-1.9C37.2,0.3,36.6,0,35.9,0H2.6C1.2,0,0,1.2,0,2.7v19.9c0,1.1,0.6,2,1.5,2.4
			c0.3,0.2,0.7,0.3,1.1,0.3h33.3C36.6,25.2,37.2,25,37.7,24.5z M15,15.6c0-0.2,0.1-0.3,0.1-0.5c0.1-0.1,0.1-0.2,0.2-0.3
			c0.1-0.1,0.2-0.1,0.4-0.1c0.2,0,0.4,0.1,0.5,0.2c0.1,0.1,0.2,0.2,0.2,0.4H16c0,0,0-0.1,0-0.1c0-0.1-0.1-0.1-0.2-0.1
			c-0.1,0-0.2,0.1-0.3,0.2c0,0.1-0.1,0.2-0.1,0.4c0.1-0.1,0.1-0.1,0.2-0.1c0.1,0,0.1,0,0.2,0c0.2,0,0.3,0.1,0.5,0.2
			c0.1,0.1,0.2,0.3,0.2,0.5c0,0.2-0.1,0.4-0.2,0.5C16.2,16.9,16,17,15.7,17c-0.3,0-0.5-0.1-0.6-0.3C15,16.5,15,16.3,15,16
			C15,15.8,15,15.7,15,15.6z M9.6,15.4c0,0.1,0,0.2-0.1,0.3c0,0.1-0.1,0.1-0.1,0.1c0,0,0.1,0,0.2,0.1c0.1,0.1,0.2,0.2,0.2,0.4
			c0,0.2-0.1,0.3-0.2,0.5C9.4,16.9,9.2,17,8.9,17c-0.3,0-0.5-0.1-0.6-0.3c-0.1-0.1-0.1-0.3-0.1-0.4h0.4c0,0.1,0,0.2,0,0.2
			c0.1,0.1,0.1,0.2,0.3,0.2c0.1,0,0.2,0,0.2-0.1c0.1-0.1,0.1-0.1,0.1-0.3c0-0.1-0.1-0.2-0.2-0.3c-0.1,0-0.2,0-0.3,0v-0.3
			c0.1,0,0.2,0,0.3,0c0.1,0,0.1-0.1,0.1-0.2c0,0,0-0.1,0-0.1c0-0.1,0-0.2-0.1-0.2c0-0.1-0.1-0.1-0.2-0.1c-0.1,0-0.2,0-0.2,0.1
			s-0.1,0.2-0.1,0.3H8.3c0-0.1,0-0.2,0.1-0.3c0-0.1,0.1-0.2,0.2-0.2c0.1-0.1,0.1-0.1,0.2-0.1c0.1,0,0.2,0,0.3,0
			c0.2,0,0.4,0.1,0.5,0.2C9.6,15,9.6,15.1,9.6,15.4C9.6,15.3,9.6,15.3,9.6,15.4z M8.1,12v-1.1h1.2C9.1,11.4,8.6,11.8,8.1,12z
			 M9.5,10.1L9.5,10.1C9.5,10.1,9.5,10.1,9.5,10.1l-1.4,0V8.7h1.4V10.1z M6.2,6.6h1.4c0.9,0,1.6,0.6,1.8,1.4H7.7L7.4,8v2.2H6.2V6.6z
			 M7.5,15.2c-0.1-0.1-0.1-0.1-0.2-0.1c-0.1,0-0.2,0-0.3,0.1c0,0.1,0,0.1,0,0.3H6.6c0-0.2,0-0.3,0.1-0.5c0-0.1,0.1-0.2,0.2-0.2
			c0,0,0.1,0,0.1-0.1c0.1,0,0.2-0.1,0.3-0.1c0.2,0,0.4,0.1,0.5,0.2C7.9,15.1,8,15.2,8,15.5c0,0.2,0,0.3-0.1,0.4
			c-0.1,0.1-0.2,0.2-0.3,0.3c0,0,0,0,0,0l-0.2,0.1c-0.1,0.1-0.2,0.1-0.2,0.2c0,0-0.1,0.1-0.1,0.1H8V17H6.5c0-0.1,0-0.3,0.1-0.4
			c0,0,0,0,0,0c0.1-0.1,0.2-0.3,0.4-0.5c0.2-0.1,0.3-0.2,0.4-0.3c0.1-0.1,0.1-0.2,0.1-0.3C7.6,15.4,7.5,15.3,7.5,15.2z M6.2,10.9
			h1.2v1.2H6.2V10.9z M5.5,6.6V8H4.2C4.4,7.3,4.8,6.8,5.5,6.6z M4.1,8.7h1.4v1.4H4.1c0,0,0,0,0,0V8.7z M5.5,10.9V12
			c-0.5-0.2-1-0.6-1.2-1.1H5.5z M3.2,16.4c0-0.1-0.1-0.3-0.1-0.5c0-0.4,0.1-0.6,0.2-0.8c0.1-0.2,0.3-0.3,0.6-0.3
			c0.3,0,0.5,0.1,0.6,0.3c0.1,0.2,0.1,0.4,0.2,0.8c0,0,0,0.1,0,0.1c0,0.4-0.1,0.6-0.2,0.8C4.4,16.9,4.2,17,3.9,17
			c-0.3,0-0.5-0.1-0.6-0.3C3.3,16.6,3.2,16.5,3.2,16.4z M5.4,22.1H5l-0.8-1.4v1.4H3.8v-2h0.4L5,21.5v-1.4h0.4V22.1z M5,15.4v-0.3
			c0.1,0,0.2,0,0.3,0c0.1,0,0.2-0.1,0.2-0.1c0,0,0.1-0.1,0.1-0.2c0,0,0-0.1,0-0.1h0.4V17H5.5v-1.5H5z M7,22.1H6.6c0,0,0-0.1,0-0.1
			c0,0,0-0.1,0-0.1c-0.1,0.1-0.1,0.1-0.2,0.1c-0.1,0-0.2,0.1-0.3,0.1c-0.1,0-0.2,0-0.3-0.1c-0.1-0.1-0.1-0.2-0.1-0.3
			c0-0.2,0.1-0.3,0.2-0.4c0.1,0,0.2-0.1,0.3-0.1l0.1,0c0.1,0,0.1,0,0.1,0c0.1,0,0.1-0.1,0.1-0.1c0-0.1,0-0.1-0.1-0.1
			c0,0-0.1,0-0.2,0c-0.1,0-0.2,0-0.2,0.1c0,0,0,0.1-0.1,0.1H5.7c0-0.1,0-0.2,0.1-0.3c0.1-0.1,0.3-0.2,0.5-0.2c0.2,0,0.3,0,0.4,0.1
			c0.1,0.1,0.2,0.2,0.2,0.4v0.7c0,0,0,0.1,0,0.2c0,0,0,0.1,0,0.1C6.9,22,6.9,22,7,22.1L7,22.1z M9.2,22.1H8.8v-0.9
			c0-0.1,0-0.1,0-0.1C8.8,21,8.7,21,8.6,21c-0.1,0-0.2,0-0.2,0.1c0,0,0,0.1,0,0.2v0.9H8v-0.9c0-0.1,0-0.1,0-0.2C8,21,7.9,21,7.8,21
			c-0.1,0-0.2,0-0.2,0.1c0,0,0,0.1,0,0.2v0.9H7.2v-1.4h0.4v0.2c0-0.1,0.1-0.1,0.1-0.2c0.1-0.1,0.2-0.1,0.3-0.1c0.1,0,0.2,0,0.3,0.1
			c0.1,0,0.1,0.1,0.1,0.2c0-0.1,0.1-0.1,0.2-0.2c0.1,0,0.2-0.1,0.3-0.1c0.1,0,0.1,0,0.2,0c0.1,0,0.1,0.1,0.2,0.1
			c0,0.1,0.1,0.1,0.1,0.2c0,0,0,0.1,0,0.2L9.2,22.1z M10,21.8c0.1,0,0.1,0.1,0.2,0.1c0.1,0,0.2,0,0.2-0.1c0,0,0.1-0.1,0.1-0.1h0.4
			c0,0.1-0.1,0.2-0.1,0.3c-0.1,0.1-0.3,0.2-0.5,0.2c-0.2,0-0.4-0.1-0.5-0.2c-0.1-0.1-0.2-0.3-0.2-0.6c0-0.3,0.1-0.4,0.2-0.6
			c0.1-0.1,0.3-0.2,0.5-0.2c0.1,0,0.2,0,0.3,0.1c0.1,0,0.2,0.1,0.2,0.2c0.1,0.1,0.1,0.2,0.1,0.3c0,0.1,0,0.2,0,0.3h-1
			C9.8,21.6,9.9,21.7,10,21.8z M11.6,16.5v-0.4l0.8-1.3h0.5v1.4h0.2v0.3h-0.2V17h-0.4v-0.5H11.6z M13.9,22.1h-1.4v-2h0.4v1.6h1V22.1
			z M13.5,16.9c-0.1-0.1-0.2-0.3-0.2-0.5h0.4c0,0.1,0,0.2,0.1,0.2c0,0.1,0.1,0.1,0.2,0.1c0.1,0,0.2,0,0.2-0.1
			c0.1-0.1,0.1-0.2,0.1-0.3c0-0.1,0-0.2-0.1-0.3c-0.1-0.1-0.1-0.1-0.2-0.1c-0.1,0-0.1,0-0.1,0c-0.1,0-0.1,0.1-0.1,0.1l-0.4,0
			l0.2-1.2h1.2v0.4h-0.9l-0.1,0.5c0.1,0,0.1-0.1,0.2-0.1c0.1,0,0.1,0,0.2,0c0.2,0,0.3,0.1,0.5,0.2c0.1,0.1,0.2,0.3,0.2,0.5
			c0,0.2-0.1,0.4-0.2,0.5C14.4,16.9,14.2,17,14,17C13.8,17,13.6,17,13.5,16.9z M15.4,22.1H15c0,0,0-0.1,0-0.1c0,0,0-0.1,0-0.1
			c-0.1,0.1-0.1,0.1-0.2,0.1c-0.1,0-0.2,0.1-0.3,0.1c-0.1,0-0.2,0-0.3-0.1C14.1,22,14,21.9,14,21.7c0-0.2,0.1-0.3,0.2-0.4
			c0.1,0,0.2-0.1,0.3-0.1l0.1,0c0.1,0,0.1,0,0.1,0c0.1,0,0.1-0.1,0.1-0.1c0-0.1,0-0.1-0.1-0.1c0,0-0.1,0-0.2,0c-0.1,0-0.2,0-0.2,0.1
			c0,0,0,0.1-0.1,0.1h-0.4c0-0.1,0-0.2,0.1-0.3c0.1-0.1,0.3-0.2,0.5-0.2c0.2,0,0.3,0,0.4,0.1c0.1,0.1,0.2,0.2,0.2,0.4v0.7
			c0,0,0,0.1,0,0.2c0,0,0,0.1,0,0.1C15.3,22,15.4,22,15.4,22.1L15.4,22.1z M16.7,22c-0.1,0.1-0.3,0.1-0.5,0.1c-0.2,0-0.4,0-0.5-0.1
			c-0.1-0.1-0.2-0.2-0.2-0.4h0.4c0,0.1,0,0.1,0.1,0.1c0,0.1,0.1,0.1,0.3,0.1c0.1,0,0.1,0,0.2,0c0,0,0.1-0.1,0.1-0.1
			c0,0,0-0.1-0.1-0.1c0,0-0.2-0.1-0.4-0.1c-0.2,0-0.3-0.1-0.3-0.2c-0.1-0.1-0.1-0.1-0.1-0.3c0-0.1,0.1-0.2,0.2-0.3
			c0.1-0.1,0.2-0.1,0.4-0.1c0.2,0,0.3,0,0.4,0.1c0.1,0.1,0.2,0.2,0.2,0.4h-0.4c0,0,0-0.1,0-0.1c0-0.1-0.1-0.1-0.2-0.1
			c-0.1,0-0.1,0-0.2,0c0,0-0.1,0.1-0.1,0.1c0,0,0,0.1,0.1,0.1c0,0,0.2,0.1,0.4,0.1c0.1,0,0.3,0.1,0.3,0.2c0.1,0.1,0.1,0.2,0.1,0.3
			C16.8,21.8,16.8,21.9,16.7,22z M17.7,20.9h-0.2v0.8c0,0.1,0,0.1,0,0.1c0,0,0.1,0,0.1,0h0c0,0,0,0,0,0v0.3l-0.2,0
			c-0.2,0-0.3,0-0.4-0.1c0,0-0.1-0.1-0.1-0.2v-0.9H17v-0.3h0.2v-0.4h0.4v0.4h0.2V20.9z M18.2,15.1c-0.1,0.1-0.2,0.2-0.3,0.3
			c-0.1,0.2-0.2,0.3-0.3,0.5c-0.1,0.1-0.1,0.3-0.2,0.5c0,0.2-0.1,0.4-0.1,0.5h-0.4c0-0.4,0.1-0.8,0.4-1.2c0.2-0.3,0.3-0.4,0.4-0.6
			h-1.1l0-0.4h1.5V15.1z M20,22.1h-0.4v-0.9c0-0.1,0-0.1,0-0.2c0-0.1-0.1-0.1-0.2-0.1c-0.1,0-0.2,0.1-0.3,0.2c0,0.1,0,0.1,0,0.2v0.8
			h-0.4v-1.4h0.4v0.2c0-0.1,0.1-0.1,0.1-0.2c0.1-0.1,0.2-0.1,0.3-0.1c0.1,0,0.3,0,0.4,0.1C20,20.8,20,21,20,21.1V22.1z M20,16.4
			c0-0.1,0-0.2,0.1-0.3c0.1-0.1,0.1-0.2,0.2-0.2c-0.1-0.1-0.2-0.1-0.2-0.2c0-0.1,0-0.2,0-0.2c0-0.2,0.1-0.3,0.2-0.4
			c0.1-0.1,0.3-0.2,0.5-0.2c0.2,0,0.4,0.1,0.5,0.2c0.1,0.1,0.2,0.2,0.2,0.4c0,0.1,0,0.1,0,0.2c0,0.1-0.1,0.2-0.2,0.2
			c0.1,0.1,0.2,0.1,0.2,0.2c0.1,0.1,0.1,0.2,0.1,0.3c0,0.2-0.1,0.3-0.2,0.5C21.2,17,21,17,20.7,17c-0.2,0-0.4-0.1-0.5-0.2
			C20.1,16.7,20,16.5,20,16.4z M21.6,22.1h-0.4c0,0,0-0.1,0-0.1c0,0,0-0.1,0-0.1C21.1,22,21,22.1,21,22.1c-0.1,0-0.2,0.1-0.3,0.1
			c-0.1,0-0.2,0-0.3-0.1c-0.1-0.1-0.1-0.2-0.1-0.3c0-0.2,0.1-0.3,0.2-0.4c0.1,0,0.2-0.1,0.3-0.1l0.1,0c0.1,0,0.1,0,0.1,0
			c0.1,0,0.1-0.1,0.1-0.1c0-0.1,0-0.1-0.1-0.1c0,0-0.1,0-0.2,0c-0.1,0-0.2,0-0.2,0.1c0,0,0,0.1-0.1,0.1h-0.4c0-0.1,0-0.2,0.1-0.3
			c0.1-0.1,0.3-0.2,0.5-0.2c0.2,0,0.3,0,0.4,0.1c0.1,0.1,0.2,0.2,0.2,0.4v0.7c0,0,0,0.1,0,0.2c0,0,0,0.1,0,0.1
			C21.5,22,21.6,22,21.6,22.1L21.6,22.1z M22.6,16.2c-0.1,0-0.2,0.1-0.3,0.1c-0.2,0-0.3-0.1-0.5-0.2c-0.1-0.1-0.2-0.3-0.2-0.5
			c0-0.2,0.1-0.4,0.2-0.6c0.1-0.1,0.3-0.2,0.5-0.2c0.3,0,0.6,0.1,0.7,0.4c0.1,0.2,0.1,0.4,0.1,0.7c0,0.3,0,0.5-0.1,0.7
			C23,16.9,22.7,17,22.4,17c-0.2,0-0.3,0-0.4-0.1c-0.1-0.1-0.2-0.2-0.2-0.4h0.4c0,0.1,0,0.1,0.1,0.2c0,0,0.1,0.1,0.2,0.1
			c0.1,0,0.2-0.1,0.3-0.2c0-0.1,0-0.2,0.1-0.4C22.7,16.1,22.7,16.1,22.6,16.2z M23.8,22.1h-0.4v-0.9c0-0.1,0-0.1,0-0.1
			c0-0.1-0.1-0.1-0.2-0.1c-0.1,0-0.2,0-0.2,0.1c0,0,0,0.1,0,0.2v0.9h-0.4v-0.9c0-0.1,0-0.1,0-0.2c0-0.1-0.1-0.1-0.2-0.1
			c-0.1,0-0.2,0-0.2,0.1c0,0,0,0.1,0,0.2v0.9h-0.4v-1.4h0.4v0.2c0-0.1,0.1-0.1,0.1-0.2c0.1-0.1,0.2-0.1,0.3-0.1c0.1,0,0.2,0,0.3,0.1
			c0.1,0,0.1,0.1,0.1,0.2c0-0.1,0.1-0.1,0.2-0.2c0.1,0,0.2-0.1,0.3-0.1c0.1,0,0.1,0,0.2,0c0.1,0,0.1,0.1,0.2,0.1
			c0,0.1,0.1,0.1,0.1,0.2c0,0,0,0.1,0,0.2L23.8,22.1z M23.5,15.4v-0.3c0.1,0,0.2,0,0.3,0c0.1,0,0.2-0.1,0.2-0.1c0,0,0.1-0.1,0.1-0.2
			c0,0,0-0.1,0-0.1h0.4V17H24v-1.5H23.5z M24.6,21.8c0.1,0,0.1,0.1,0.2,0.1c0.1,0,0.2,0,0.2-0.1c0,0,0.1-0.1,0.1-0.1h0.4
			c0,0.1-0.1,0.2-0.1,0.3c-0.1,0.1-0.3,0.2-0.5,0.2c-0.2,0-0.4-0.1-0.5-0.2c-0.1-0.1-0.2-0.3-0.2-0.6c0-0.3,0.1-0.4,0.2-0.6
			c0.1-0.1,0.3-0.2,0.5-0.2c0.1,0,0.2,0,0.3,0.1c0.1,0,0.2,0.1,0.2,0.2c0.1,0.1,0.1,0.2,0.1,0.3c0,0.1,0,0.2,0,0.3h-1
			C24.5,21.6,24.5,21.7,24.6,21.8z M26.5,17h-1.5c0-0.2,0-0.3,0.1-0.4c0.1-0.1,0.2-0.3,0.4-0.5c0.2-0.1,0.3-0.2,0.4-0.3
			c0.1-0.1,0.1-0.2,0.1-0.3c0-0.1,0-0.2-0.1-0.2c-0.1-0.1-0.1-0.1-0.2-0.1c-0.1,0-0.2,0-0.3,0.1c0,0.1,0,0.1,0,0.3h-0.4
			c0-0.2,0-0.3,0.1-0.5c0.1-0.2,0.3-0.3,0.6-0.3c0.2,0,0.4,0.1,0.5,0.2c0.1,0.1,0.2,0.3,0.2,0.5c0,0.2,0,0.3-0.1,0.4
			c-0.1,0.1-0.2,0.2-0.3,0.3l-0.2,0.1c-0.1,0.1-0.2,0.1-0.2,0.2c0,0-0.1,0.1-0.1,0.1h0.9V17z M24,9.3c-0.3-0.4-0.5-0.8-0.6-1.3
			c-0.1-0.3-0.1-0.6-0.1-0.9c0-2,1.6-3.6,3.5-3.6c0.8,0,1.5,0.3,2.1,0.7c0.6-0.5,1.4-0.8,2.2-0.8c0.7,0,1.4,0.2,1.9,0.6
			c0.5,0.3,0.8,0.7,1.1,1.2c0.3,0.5,0.5,1.1,0.5,1.8c0,2-1.6,3.6-3.5,3.6c-0.8,0-1.5-0.3-2-0.7c-0.6,0.5-1.4,0.8-2.2,0.8
			C25.7,10.7,24.7,10.1,24,9.3z M29.7,16.8c-0.1,0.1-0.3,0.2-0.6,0.2c-0.3,0-0.5-0.1-0.6-0.3c-0.1-0.1-0.1-0.3-0.1-0.4h0.4
			c0,0.1,0,0.2,0,0.2c0.1,0.1,0.1,0.2,0.3,0.2c0.1,0,0.2,0,0.2-0.1c0.1-0.1,0.1-0.1,0.1-0.3c0-0.1-0.1-0.2-0.2-0.3
			c-0.1,0-0.2,0-0.3,0v-0.3c0.1,0,0.2,0,0.3,0c0.1,0,0.1-0.1,0.1-0.3c0-0.1,0-0.2-0.1-0.2c0-0.1-0.1-0.1-0.2-0.1
			c-0.1,0-0.2,0-0.2,0.1c0,0.1-0.1,0.2-0.1,0.3h-0.4c0-0.1,0-0.2,0.1-0.3c0-0.1,0.1-0.2,0.2-0.2c0.1-0.1,0.1-0.1,0.2-0.1
			c0.1,0,0.2,0,0.3,0c0.2,0,0.4,0.1,0.5,0.2c0.1,0.1,0.2,0.3,0.2,0.4c0,0.1,0,0.2-0.1,0.3c0,0.1-0.1,0.1-0.1,0.1c0,0,0.1,0,0.2,0.1
			c0.1,0.1,0.2,0.2,0.2,0.4C29.9,16.5,29.9,16.7,29.7,16.8z M31.6,16.5h-0.2V17H31v-0.5h-0.8v-0.4l0.8-1.3h0.5v1.4h0.2V16.5z
			 M33.1,16.8C33,16.9,32.8,17,32.5,17c-0.2,0-0.4-0.1-0.5-0.2c-0.1-0.1-0.2-0.3-0.2-0.5h0.4c0,0.1,0,0.2,0.1,0.2
			c0,0.1,0.1,0.1,0.2,0.1c0.1,0,0.2,0,0.2-0.1c0.1-0.1,0.1-0.2,0.1-0.3c0-0.1,0-0.2-0.1-0.3c-0.1-0.1-0.1-0.1-0.2-0.1
			c-0.1,0-0.1,0-0.1,0c-0.1,0-0.1,0.1-0.1,0.1l-0.4,0l0.2-1.2h1.2v0.4h-0.9l-0.1,0.5c0.1,0,0.1-0.1,0.2-0.1c0.1,0,0.1,0,0.2,0
			c0.2,0,0.3,0.1,0.5,0.2c0.1,0.1,0.2,0.3,0.2,0.5C33.3,16.4,33.2,16.6,33.1,16.8z M34.8,16.8c-0.1,0.2-0.3,0.2-0.6,0.2
			c-0.3,0-0.5-0.1-0.6-0.3c-0.1-0.2-0.1-0.4-0.1-0.7c0-0.2,0-0.3,0-0.4c0-0.2,0.1-0.3,0.1-0.5c0.1-0.1,0.1-0.2,0.2-0.3
			c0.1-0.1,0.2-0.1,0.4-0.1c0.2,0,0.4,0.1,0.5,0.2c0.1,0.1,0.2,0.2,0.2,0.4h-0.4c0,0,0-0.1,0-0.1c0-0.1-0.1-0.1-0.2-0.1
			c-0.1,0-0.2,0.1-0.3,0.2c0,0.1-0.1,0.2-0.1,0.4c0.1-0.1,0.1-0.1,0.2-0.1c0.1,0,0.1,0,0.2,0c0.2,0,0.3,0.1,0.5,0.2
			c0.1,0.1,0.2,0.3,0.2,0.5C35,16.5,34.9,16.6,34.8,16.8z M29.7,9.4c0.2-0.2,0.4-0.3,0.5-0.5h-2.1C28,8.7,28,8.6,27.9,8.5h2.6
			c0.1-0.2,0.2-0.4,0.2-0.6h-3c0,0,0-0.1,0-0.1c0-0.1,0-0.2-0.1-0.4h3.2c0-0.1,0-0.3,0-0.4c0,0,0-0.1,0-0.1h-3.3c0-0.2,0-0.3,0-0.5
			h3.2c0-0.2-0.1-0.4-0.2-0.6h-2.9c0.1-0.2,0.1-0.3,0.2-0.5h2.4c-0.1-0.1-0.1-0.2-0.2-0.2C30.1,5,30.1,4.9,30,4.8h-1.7
			c0,0,0.1-0.1,0.1-0.1c-0.4-0.3-1-0.5-1.5-0.5c-1.6,0-2.8,1.3-2.8,2.9c0,0.2,0,0.4,0.1,0.6c0.1,0.5,0.3,0.9,0.7,1.3
			c0.5,0.6,1.3,1,2.1,1c0.6,0,1.2-0.2,1.6-0.5L29.7,9.4C29.7,9.4,29.7,9.4,29.7,9.4z"/>
	</g>
</g>
</svg>
