<?xml version="1.0" encoding="utf-8"?>
<!-- Generator: Adobe Illustrator 19.2.0, SVG Export Plug-In . SVG Version: 6.00 Build 0)  -->
<svg version="1.1" id="Forma_1_1_" xmlns="http://www.w3.org/2000/svg" xmlns:xlink="http://www.w3.org/1999/xlink" x="0px" y="0px"
	 viewBox="0 0 43 41" enable-background="new 0 0 43 41" xml:space="preserve">
<g id="Forma_1">
	<g>
		<path fill="#F3F3F3" d="M27.2,3.2l-0.9-1.8c-0.6-1.2-2-1.7-3.2-1.1L7.7,7.8H10L27.2,3.2z M35.6,7.8l-0.8-2.7
			c-0.3-1.1-1.3-1.8-2.3-1.8c-0.2,0-0.4,0-0.6,0.1l-4,1.1L15.5,7.8H35.6z M22.1,27.8v-5.3c0-1.1,0.4-2.1,1.2-2.8
			c0.6-0.7,1.5-1.1,2.4-1.2c0.2,0,0.3,0,0.5,0h14.3v-6.5c0-1.3-1.1-2.4-2.4-2.4H2.4c-0.8,0-1.4,0.4-1.9,0.9
			c-0.2,0.3-0.4,0.5-0.4,0.9C0,11.5,0,11.7,0,11.9v26.7C0,39.9,1.1,41,2.4,41h35.7c1.3,0,2.4-1.1,2.4-2.4v-6.7H26.2
			C23.9,31.9,22.1,30.1,22.1,27.8z M42.2,20.7c-0.2-0.2-0.5-0.4-0.8-0.5c-0.2-0.1-0.5-0.1-0.8-0.1H26.2c-1.3,0-2.4,1.1-2.4,2.4v5.3
			c0,1.3,1.1,2.4,2.4,2.4h14.4c0.3,0,0.5,0,0.8-0.1c0.3-0.1,0.6-0.3,0.8-0.5c0.5-0.4,0.8-1.1,0.8-1.8v-5.3
			C43,21.8,42.7,21.2,42.2,20.7z M31.2,25.6c0,0.7-0.5,1.2-1.2,1.2h-0.8c-0.7,0-1.2-0.5-1.2-1.2v-0.8c0-0.4,0.2-0.7,0.5-0.9
			c0.2-0.2,0.5-0.3,0.7-0.3H30c0.7,0,1.2,0.5,1.2,1.2V25.6z"/>
	</g>
</g>
</svg>
