<?xml version="1.0" encoding="utf-8"?>
<!-- Generator: Adobe Illustrator 19.2.0, SVG Export Plug-In . SVG Version: 6.00 Build 0)  -->
<svg version="1.1" id="Forma_1_1_" xmlns="http://www.w3.org/2000/svg" xmlns:xlink="http://www.w3.org/1999/xlink" x="0px" y="0px"
	 viewBox="0 0 16 16" enable-background="new 0 0 16 16" xml:space="preserve">
<g id="Forma_1">
	<g>
		<path fill-rule="evenodd" clip-rule="evenodd" fill="#FFFFFF" d="M15.8,14.6l-3.9-4c1-1.2,1.6-2.6,1.6-4.2c0-3.6-3-6.5-6.7-6.5
			S0,2.9,0,6.5c0,3.6,3,6.5,6.7,6.5c1.4,0,2.7-0.4,3.8-1.2l4,4c0.2,0.2,0.4,0.3,0.6,0.3c0.2,0,0.4-0.1,0.6-0.2
			C16.1,15.4,16.1,14.9,15.8,14.6z M6.7,11.2c-2.7,0-4.9-2.1-4.9-4.8c0-2.6,2.2-4.8,4.9-4.8s4.9,2.1,4.9,4.8
			C11.6,9.1,9.4,11.2,6.7,11.2z"/>
	</g>
</g>
</svg>
