<?xml version="1.0" encoding="utf-8"?>
<!-- Generator: Adobe Illustrator 19.2.0, SVG Export Plug-In . SVG Version: 6.00 Build 0)  -->
<svg version="1.1" id="Forma_1_1_" xmlns="http://www.w3.org/2000/svg" xmlns:xlink="http://www.w3.org/1999/xlink" x="0px" y="0px"
	 viewBox="0 0 32 29" enable-background="new 0 0 32 29" xml:space="preserve">
<g id="Forma_1">
	<g>
		<path fill-rule="evenodd" clip-rule="evenodd" fill="#B56A94" d="M30.6,9c-0.4-4.7-3.8-8.2-8-8.2c-2.8,0-5.4,1.5-6.8,3.9
			c-1.4-2.4-3.9-3.9-6.7-3.9c-4.2,0-7.6,3.4-8,8.2c0,0.2-0.2,1.3,0.3,3.1c0.6,2.6,2,5,4.1,6.8l10.3,9.3l10.5-9.3
			c2.1-1.9,3.5-4.2,4.1-6.8C30.8,10.3,30.6,9.2,30.6,9z M29.3,11.8c-0.6,2.4-1.9,4.5-3.8,6.2l-9.7,8.7l-9.6-8.7
			c-1.9-1.7-3.2-3.9-3.8-6.2c-0.4-1.7-0.2-2.7-0.2-2.7l0-0.1c0.4-4.2,3.3-7.2,6.9-7.2c2.7,0,5,1.6,6.1,4.3l0.5,1.2l0.5-1.2
			c1.1-2.6,3.6-4.3,6.3-4.3c3.6,0,6.5,3,6.9,7.2C29.5,9.2,29.7,10.1,29.3,11.8z"/>
	</g>
	<g>
		<path fill="none" stroke="#B56A94" stroke-miterlimit="100" d="M30.6,9c-0.4-4.7-3.8-8.2-8-8.2c-2.8,0-5.4,1.5-6.8,3.9
			c-1.4-2.4-3.9-3.9-6.7-3.9c-4.2,0-7.6,3.4-8,8.2c0,0.2-0.2,1.3,0.3,3.1c0.6,2.6,2,5,4.1,6.8l10.3,9.3l10.5-9.3
			c2.1-1.9,3.5-4.2,4.1-6.8C30.8,10.3,30.6,9.2,30.6,9z M29.3,11.8c-0.6,2.4-1.9,4.5-3.8,6.2l-9.7,8.7l-9.6-8.7
			c-1.9-1.7-3.2-3.9-3.8-6.2c-0.4-1.7-0.2-2.7-0.2-2.7l0-0.1c0.4-4.2,3.3-7.2,6.9-7.2c2.7,0,5,1.6,6.1,4.3l0.5,1.2l0.5-1.2
			c1.1-2.6,3.6-4.3,6.3-4.3c3.6,0,6.5,3,6.9,7.2C29.5,9.2,29.7,10.1,29.3,11.8z"/>
	</g>
</g>
</svg>
