<?xml version="1.0" encoding="utf-8"?>
<!-- Generator: Adobe Illustrator 19.2.0, SVG Export Plug-In . SVG Version: 6.00 Build 0)  -->
<svg version="1.1" id="Forma_1_1_" xmlns="http://www.w3.org/2000/svg" xmlns:xlink="http://www.w3.org/1999/xlink" x="0px" y="0px"
	 viewBox="0 0 35 33" enable-background="new 0 0 35 33" xml:space="preserve">
<g id="Forma_1">
	<g>
		<path fill-rule="evenodd" clip-rule="evenodd" fill="#B56A94" d="M17.4,0C8.1,0,0.5,7.4,0.5,16.5C0.5,25.6,8.1,33,17.4,33
			c9.3,0,16.9-7.4,16.9-16.5C34.3,7.4,26.7,0,17.4,0z M25.9,18.3c0.8,0.8,1.6,1.5,2.3,2.3c0.3,0.4,0.6,0.7,0.8,1.2
			c0.3,0.6,0,1.3-0.5,1.3l-3.5,0c-0.9,0.1-1.6-0.3-2.2-0.9c-0.5-0.5-0.9-1-1.4-1.5c-0.2-0.2-0.4-0.4-0.6-0.5
			c-0.5-0.3-0.9-0.2-1.2,0.3c-0.3,0.5-0.3,1-0.4,1.6c0,0.8-0.3,1-1.1,1c-1.7,0.1-3.4-0.2-4.9-1c-1.4-0.8-2.4-1.8-3.3-3
			c-1.8-2.4-3.2-5-4.4-7.6c-0.3-0.6-0.1-0.9,0.6-0.9c1.1,0,2.3,0,3.4,0c0.5,0,0.8,0.3,0.9,0.7c0.6,1.5,1.4,2.9,2.3,4.2
			c0.2,0.3,0.5,0.7,0.9,0.9c0.4,0.3,0.7,0.2,0.9-0.3c0.1-0.3,0.2-0.6,0.2-0.9c0.1-1,0.1-2-0.1-3.1c-0.1-0.6-0.5-1-1.1-1.2
			c-0.3-0.1-0.3-0.2-0.1-0.4c0.3-0.3,0.5-0.5,1.1-0.5l3.9,0c0.6,0.1,0.8,0.4,0.8,1l0,4.2c0,0.2,0.1,0.9,0.6,1.1
			c0.3,0.1,0.6-0.2,0.8-0.4c0.9-1,1.6-2.1,2.2-3.3c0.3-0.5,0.5-1.1,0.7-1.6c0.2-0.4,0.4-0.6,0.9-0.6l3.8,0c0.1,0,0.2,0,0.3,0
			c0.6,0.1,0.8,0.4,0.6,1c-0.3,0.9-0.9,1.7-1.5,2.5c-0.6,0.8-1.3,1.7-1.9,2.5C25.2,17.2,25.2,17.6,25.9,18.3z"/>
	</g>
</g>
</svg>
