<?xml version="1.0" encoding="utf-8"?>
<!-- Generator: Adobe Illustrator 19.2.0, SVG Export Plug-In . SVG Version: 6.00 Build 0)  -->
<svg version="1.1" id="Forma_1_1_" xmlns="http://www.w3.org/2000/svg" xmlns:xlink="http://www.w3.org/1999/xlink" x="0px" y="0px"
	 viewBox="0 0 34 33" enable-background="new 0 0 34 33" xml:space="preserve">
<g id="Forma_1">
	<g>
		<path fill="#B56A94" d="M14,20.1c2.5-1.3,5-2.6,7.6-3.8c-2.5-1.3-5.1-2.6-7.6-3.9V20.1z M17.1,0C7.8,0,0.2,7.4,0.2,16.5
			C0.2,25.6,7.8,33,17.1,33C26.4,33,34,25.6,34,16.5C34,7.4,26.4,0,17.1,0z M28.6,22c-0.3,1.2-1.3,2.2-2.6,2.3
			c-3,0.3-5.9,0.3-8.9,0.3c-3,0-6,0-8.9-0.3c-1.2-0.1-2.3-1.1-2.6-2.3c-0.4-1.8-0.4-3.7-0.4-5.5c0-1.8,0-3.7,0.4-5.5
			c0.3-1.2,1.3-2.2,2.6-2.3c3-0.3,5.9-0.3,8.9-0.3c3,0,6,0,8.9,0.3c1.2,0.1,2.3,1.1,2.6,2.3c0.4,1.8,0.4,3.7,0.4,5.5
			C29,18.3,29,20.2,28.6,22z"/>
	</g>
</g>
</svg>
