<?xml version="1.0" encoding="utf-8"?>
<!-- Generator: Adobe Illustrator 19.2.0, SVG Export Plug-In . SVG Version: 6.00 Build 0)  -->
<svg version="1.1" id="Forma_1_копия_1_" xmlns="http://www.w3.org/2000/svg" xmlns:xlink="http://www.w3.org/1999/xlink"
	 x="0px" y="0px" viewBox="0 0 30 28" enable-background="new 0 0 30 28" xml:space="preserve">
<g id="Forma_1_копия">
	<g>
		<path fill="#FF0000" d="M21.7,1C25.8,1,29,4.2,29,8.4c0,5.2-4.5,9.6-12.6,16.8l0,0l0,0L15,26.6l-1.4-1.4l0,0l0,0
			C5.5,17.9,1,13.6,1,8.4C1,4.2,4.2,1,8.2,1c2.2,0,4.5,1.1,6,2.8L15,4.8l0.8-0.9C17.2,2.1,19.5,1,21.7,1 M21.7,0
			c-2.5,0-5.1,1.2-6.7,3.2C13.3,1.2,10.8,0,8.2,0C3.6,0,0,3.7,0,8.4c0,5.8,5.1,10.5,12.9,17.5L15,28l2.1-2.1
			C24.9,18.9,30,14.2,30,8.4C30,3.7,26.4,0,21.7,0L21.7,0z"/>
	</g>
</g>
</svg>
