<?xml version="1.0" encoding="utf-8"?>
<!-- Generator: Adobe Illustrator 19.2.0, SVG Export Plug-In . SVG Version: 6.00 Build 0)  -->
<svg version="1.1" id="Forma_1_1_" xmlns="http://www.w3.org/2000/svg" xmlns:xlink="http://www.w3.org/1999/xlink" x="0px" y="0px"
	 viewBox="0 0 26 29" enable-background="new 0 0 26 29" xml:space="preserve">
<g id="Forma_1">
	<g>
		<path fill="#86837E" d="M13.1,2.8c4,0,4.7,1.5,4.7,4.7c0,2.6-2.1,4.7-4.7,4.7c-2.6,0-4.7-2.1-4.7-4.7C8.4,4.2,9.1,2.8,13.1,2.8
			 M17.3,16.8c6.1,1,6.3,2.2,6.4,7.4c0,0,0,0,0,0.1c-0.9,0.6-3.7,1.9-10.6,1.9c-6.9,0-9.7-1.3-10.6-2c0-0.1,0-0.2,0-0.3
			c0.1-5,0.4-6.2,6.4-7.2c0.8,0.5,2.2,1.1,4.2,1.1C15.1,17.9,16.4,17.3,17.3,16.8 M13.1,0.8c-5.7,0-6.7,3-6.7,6.7
			c0,3.7,3,6.7,6.7,6.7c3.7,0,6.7-3,6.7-6.7C19.8,3.8,18.8,0.8,13.1,0.8L13.1,0.8z M16.8,14.7c0,0-1.1,1.2-3.7,1.2
			c-2.6,0-3.7-1.2-3.7-1.2c-7.7,1.2-8.8,3-9,9.3c0,0.4,0,0.5,0,0.5c0,0,0,0,0,0c0,0.1,0,0.3,0,0.7c0,0,1.9,3.1,12.6,3.1
			c10.8,0,12.6-3.1,12.6-3.1c0-0.2,0-0.4,0-0.5c0,0,0,0,0,0c0,0,0-0.1,0-0.5C25.6,17.7,24.6,15.9,16.8,14.7L16.8,14.7z M0.5,24.4
			c0,0,0,0.1,0,0.1C0.5,24.4,0.5,24.4,0.5,24.4L0.5,24.4z M25.7,24.4c0,0,0,0.1,0,0.2C25.7,24.6,25.7,24.4,25.7,24.4L25.7,24.4z"/>
	</g>
</g>
</svg>
