<?xml version="1.0" encoding="utf-8"?>
<!-- Generator: Adobe Illustrator 19.2.0, SVG Export Plug-In . SVG Version: 6.00 Build 0)  -->
<svg version="1.1" id="Forma_1_1_" xmlns="http://www.w3.org/2000/svg" xmlns:xlink="http://www.w3.org/1999/xlink" x="0px" y="0px"
	 viewBox="0 0 26 29" enable-background="new 0 0 26 29" xml:space="preserve">
<g id="Forma_1">
	<g>
		<path fill-rule="evenodd" clip-rule="evenodd" fill="#B56A94" d="M23.2,8.4c0-0.3-0.3-0.5-0.6-0.5h-3.7V6.7c0-3.3-2.6-6-5.9-6
			c-3.2,0-5.9,2.7-5.9,6v1.2H3.3C3,7.9,2.8,8.1,2.7,8.4l-2,19.1c0,0.2,0,0.3,0.1,0.5c0.1,0.1,0.3,0.2,0.4,0.2h23.4
			c0.2,0,0.3-0.1,0.4-0.2c0.1-0.1,0.2-0.3,0.1-0.5L23.2,8.4z M18.3,11.4c0.3,0,0.5,0.2,0.5,0.5c0,0.3-0.2,0.5-0.5,0.5
			c-0.3,0-0.5-0.2-0.5-0.5C17.7,11.6,18,11.4,18.3,11.4z M8.4,6.7C8.4,4.1,10.5,2,13,2s4.6,2.1,4.6,4.7v1.2H8.4V6.7z M7.8,11.4
			c0.3,0,0.5,0.2,0.5,0.5c0,0.3-0.2,0.5-0.5,0.5c-0.3,0-0.5-0.2-0.5-0.5C7.2,11.6,7.5,11.4,7.8,11.4z M2,27L3.9,9.1h3.3v1.1
			C6.5,10.5,6,11.1,6,11.9c0,1,0.8,1.7,1.7,1.7c0.9,0,1.7-0.8,1.7-1.7c0-0.8-0.5-1.4-1.1-1.6V9.1h9.3v1.1c-0.7,0.2-1.1,0.9-1.1,1.6
			c0,1,0.8,1.7,1.7,1.7c0.9,0,1.7-0.8,1.7-1.7c0-0.8-0.5-1.4-1.1-1.6V9.1h3.4L24.1,27H2z"/>
	</g>
	<g>
		<path fill="none" stroke="#B56A94" stroke-miterlimit="100" d="M23.2,8.4c0-0.3-0.3-0.5-0.6-0.5h-3.7V6.7c0-3.3-2.6-6-5.9-6
			c-3.2,0-5.9,2.7-5.9,6v1.2H3.3C3,7.9,2.8,8.1,2.7,8.4l-2,19.1c0,0.2,0,0.3,0.1,0.5c0.1,0.1,0.3,0.2,0.4,0.2h23.4
			c0.2,0,0.3-0.1,0.4-0.2c0.1-0.1,0.2-0.3,0.1-0.5L23.2,8.4z M18.3,11.4c0.3,0,0.5,0.2,0.5,0.5c0,0.3-0.2,0.5-0.5,0.5
			c-0.3,0-0.5-0.2-0.5-0.5C17.7,11.6,18,11.4,18.3,11.4z M8.4,6.7C8.4,4.1,10.5,2,13,2s4.6,2.1,4.6,4.7v1.2H8.4V6.7z M7.8,11.4
			c0.3,0,0.5,0.2,0.5,0.5c0,0.3-0.2,0.5-0.5,0.5c-0.3,0-0.5-0.2-0.5-0.5C7.2,11.6,7.5,11.4,7.8,11.4z M2,27L3.9,9.1h3.3v1.1
			C6.5,10.5,6,11.1,6,11.9c0,1,0.8,1.7,1.7,1.7c0.9,0,1.7-0.8,1.7-1.7c0-0.8-0.5-1.4-1.1-1.6V9.1h9.3v1.1c-0.7,0.2-1.1,0.9-1.1,1.6
			c0,1,0.8,1.7,1.7,1.7c0.9,0,1.7-0.8,1.7-1.7c0-0.8-0.5-1.4-1.1-1.6V9.1h3.4L24.1,27H2z"/>
	</g>
</g>
</svg>
