<?xml version="1.0" encoding="utf-8"?>
<!-- Generator: Adobe Illustrator 19.2.0, SVG Export Plug-In . SVG Version: 6.00 Build 0)  -->
<svg version="1.1" id="Forma_1_1_" xmlns="http://www.w3.org/2000/svg" xmlns:xlink="http://www.w3.org/1999/xlink" x="0px" y="0px"
	 viewBox="0 0 60 40" enable-background="new 0 0 60 40" xml:space="preserve">
<g id="Forma_1">
	<g>
		<path fill-rule="evenodd" clip-rule="evenodd" fill="#F3F3F3" d="M5.8,4.8L0.1,16.9c-0.3,0.6,0.2,1.3,0.9,1.2l21.4-2.1
			c0.3,0,0.6-0.2,0.7-0.5L29.9,0L6.4,4.3C6.1,4.3,5.9,4.5,5.8,4.8z M28.3,8.9l-3.6,8.6c-0.1,0.3-0.4,0.5-0.7,0.5L5.9,19.5
			c-0.4,0-0.8,0.4-0.8,0.9l0.4,14.2c0,0.4,0.3,0.7,0.7,0.8l21.4,4.5c0.5,0.1,1.1,0.2,1.6,0.2l0-4.2V9C29.2,7.9,28.8,7.8,28.3,8.9z
			 M25.9,35.3l-8-1.3v-4.2h8V35.3z M59.9,16.9L54.2,4.8c-0.1-0.2-0.3-0.4-0.6-0.5L30.1,0L37,15.4c0.1,0.3,0.4,0.5,0.7,0.5l21.4,2.1
			C59.7,18.1,60.2,17.5,59.9,16.9z M54.1,19.5L35.9,18c-0.3,0-0.6-0.2-0.7-0.5l-3.6-8.6c-0.4-1.1-0.8-1-0.8,0.2v26.8l0,4.2
			c0.5,0,1.1-0.1,1.6-0.2l21.4-4.5c0.4-0.1,0.7-0.4,0.7-0.8l0.4-14.2C54.9,20,54.5,19.6,54.1,19.5z M46.6,27.1l-1,0l0,6.3
			c0,0.3-0.3,0.5-0.6,0.6l-1.6,0.2c-0.4,0.1-0.7-0.1-0.7-0.4l0-6.6l-1.1,0c-0.6,0-0.9-0.4-0.6-0.8l2.7-3.5c0.3-0.3,0.9-0.3,1.1,0
			l2.4,3.4C47.4,26.7,47.1,27.1,46.6,27.1z"/>
	</g>
</g>
</svg>
