<?xml version="1.0" encoding="utf-8"?>
<!-- Generator: Adobe Illustrator 19.2.0, SVG Export Plug-In . SVG Version: 6.00 Build 0)  -->
<svg version="1.1" id="Forma_1_1_" xmlns="http://www.w3.org/2000/svg" xmlns:xlink="http://www.w3.org/1999/xlink" x="0px" y="0px"
	 viewBox="0 0 48 39" enable-background="new 0 0 48 39" xml:space="preserve">
<g id="Forma_1">
	<g>
		<path fill-rule="evenodd" clip-rule="evenodd" fill="#F3F3F3" d="M47.5,28.9c-0.4-0.4-0.8-0.5-1.2-0.5v-8.9c0-0.1,0-0.5,0-1
			c0-0.5,0-0.8,0-1.1c0-0.2,0-0.5-0.1-1c0-0.4-0.1-0.8-0.2-1c-0.1-0.2-0.2-0.5-0.4-0.8c-0.2-0.3-0.4-0.6-0.6-0.8l-5.5-5.5
			c-0.4-0.4-0.8-0.6-1.4-0.9c-0.6-0.2-1.1-0.4-1.6-0.4H32V1.8c0-0.5-0.2-0.9-0.5-1.2C31.1,0.2,30.7,0,30.2,0H1.8
			C1.3,0,0.9,0.2,0.5,0.5C0.2,0.9,0,1.3,0,1.8v28.4c0,0.3,0,0.5,0.1,0.7c0.1,0.2,0.2,0.4,0.4,0.5c0.2,0.1,0.3,0.2,0.5,0.3
			c0.1,0.1,0.3,0.1,0.7,0.2c0.3,0,0.5,0,0.6,0.1c0.1,0,0.3,0,0.7,0c0.4,0,0.6,0,0.6,0c0,2,0.7,3.6,2.1,5c1.4,1.4,3.1,2.1,5,2.1
			c2,0,3.6-0.7,5-2.1c1.4-1.4,2.1-3.1,2.1-5h10.7c0,2,0.7,3.6,2.1,5c1.4,1.4,3.1,2.1,5,2.1c2,0,3.6-0.7,5-2.1c1.4-1.4,2.1-3.1,2.1-5
			h1.8c0.1,0,0.3,0,0.6,0c0.4,0,0.6,0,0.7,0c0.1,0,0.3,0,0.6-0.1c0.3,0,0.5-0.1,0.7-0.2c0.1-0.1,0.3-0.2,0.5-0.3
			c0.2-0.1,0.3-0.3,0.4-0.5c0.1-0.2,0.1-0.5,0.1-0.7C48,29.7,47.8,29.2,47.5,28.9z M13.2,34.4c-0.7,0.7-1.5,1.1-2.5,1.1
			c-1,0-1.8-0.4-2.5-1.1c-0.7-0.7-1.1-1.5-1.1-2.5c0-1,0.4-1.8,1.1-2.5c0.7-0.7,1.5-1.1,2.5-1.1c1,0,1.8,0.4,2.5,1.1
			c0.7,0.7,1.1,1.5,1.1,2.5C14.2,32.9,13.9,33.7,13.2,34.4z M38.1,34.4c-0.7,0.7-1.5,1.1-2.5,1.1s-1.8-0.4-2.5-1.1
			c-0.7-0.7-1.1-1.5-1.1-2.5c0-1,0.4-1.8,1.1-2.5c0.7-0.7,1.5-1.1,2.5-1.1s1.8,0.4,2.5,1.1c0.7,0.7,1.1,1.5,1.1,2.5
			C39.1,32.9,38.8,33.7,38.1,34.4z M42.7,17.7H32v-7.1h4.4c0.2,0,0.4,0.1,0.6,0.2l5.4,5.4c0.2,0.2,0.2,0.4,0.2,0.6V17.7z"/>
	</g>
</g>
</svg>
